<svg xmlns="http://www.w3.org/2000/svg" width="19.775" height="15.564" viewBox="0 0 19.775 15.564"><defs><style>.a{fill:#fff;}</style></defs><g transform="translate(0 0)"><g transform="translate(0 0)"><g transform="translate(0 0)"><path class="a" d="M19.117,47.225a2.126,2.126,0,0,0-1.56-.658h-3.12v-.038a1.688,1.688,0,0,0-.508-1.222,1.72,1.72,0,0,0-1.222-.508H7.068A1.733,1.733,0,0,0,5.32,46.529v.038h-3.1a2.126,2.126,0,0,0-1.56.658A2.235,2.235,0,0,0,0,48.785v9.361a2.126,2.126,0,0,0,.658,1.56,2.235,2.235,0,0,0,1.56.658H17.557a2.126,2.126,0,0,0,1.56-.658,2.235,2.235,0,0,0,.658-1.56V48.785A2.126,2.126,0,0,0,19.117,47.225ZM18.8,58.146h-.019a1.219,1.219,0,0,1-1.222,1.222H2.218A1.219,1.219,0,0,1,1,58.146V48.785a1.219,1.219,0,0,1,1.222-1.222H5.846a.505.505,0,0,0,.508-.508v-.545a.708.708,0,0,1,.733-.733h5.62a.708.708,0,0,1,.733.733v.545a.505.505,0,0,0,.508.508h3.628A1.219,1.219,0,0,1,18.8,48.785Z" transform="translate(0 -44.8)"/><path class="a" d="M116.624,130.8a4.621,4.621,0,1,0,3.271,1.353A4.633,4.633,0,0,0,116.624,130.8Zm2.556,7.2a3.631,3.631,0,0,1-5.113,0,3.593,3.593,0,0,1-1.053-2.556,3.674,3.674,0,0,1,1.053-2.557,3.594,3.594,0,0,1,2.556-1.053,3.674,3.674,0,0,1,2.556,1.053,3.594,3.594,0,0,1,1.053,2.557A3.517,3.517,0,0,1,119.181,138Z" transform="translate(-106.737 -126.759)"/><circle class="a" cx="0.921" cy="0.921" r="0.921" transform="translate(15.658 4.023)"/></g></g></g></svg>