<svg xmlns="http://www.w3.org/2000/svg" width="32.277" height="26" viewBox="0 0 32.277 26"><defs><style>.a{fill:#192956;stroke:#fff;}</style></defs><g transform="translate(0.508 0.5)"><path class="a" d="M33.127,15.875C29.971,8.547,24.033,4,17.627,4S5.283,8.547,2.127,15.875a1.562,1.562,0,0,0,0,1.25C5.283,24.453,11.221,29,17.627,29s12.344-4.547,15.5-11.875A1.562,1.562,0,0,0,33.127,15.875Zm-15.5,10c-4.953,0-9.641-3.578-12.344-9.375,2.7-5.8,7.391-9.375,12.344-9.375S27.268,10.7,29.971,16.5C27.268,22.3,22.58,25.875,17.627,25.875Zm0-15.625a6.25,6.25,0,1,0,6.25,6.25A6.25,6.25,0,0,0,17.627,10.25Zm0,9.375A3.125,3.125,0,1,1,20.752,16.5,3.125,3.125,0,0,1,17.627,19.625Z" transform="translate(-1.997 -4)"/></g></svg>