<svg id="_Overrides_Icons_file_cloud_upload" data-name="_Overrides/Icons/file/cloud_upload" xmlns="http://www.w3.org/2000/svg" width="308.9" height="325.58" viewBox="0 0 308.9 325.58">
  <path id="Shape" d="M0,0H308.9V325.58H0Z" fill="rgba(185,175,175,0)"/>
  <path id="Color" d="M244.542,211.469H77.228C34.644,211.469,0,175.893,0,132.165A80.294,80.294,0,0,1,19.9,79.051,76.188,76.188,0,0,1,68.853,53.4C85.556,20.463,118.357,0,154.444,0a94.98,94.98,0,0,1,61.589,22.816,99.938,99.938,0,0,1,33.015,57.011,63.67,63.67,0,0,1,42.476,20.586A66.216,66.216,0,0,1,308.9,145.38C308.9,181.822,280.029,211.469,244.542,211.469Zm-90.1-158.608h0L90.1,118.95h38.608v52.861h51.489V118.95H218.8L154.444,52.861Z" transform="translate(0 56.46)" fill="rgba(26,179,179,0.05)"/>
</svg>
