<svg xmlns="http://www.w3.org/2000/svg" width="407.367" height="203.326" viewBox="0 0 407.367 203.326"><defs><style>.a{fill:#1a2e35;}.b{fill:#375a64;}.c{fill:#fafafa;}.d{fill:#00b1b2;}.e{fill:#e1e1e1;}.f{fill:#f5f5f5;}.g{opacity:0.2;}</style></defs><g transform="translate(16238 21281.764)"><g transform="translate(-16238 -21080.271)"><g transform="translate(0 0)"><path class="a" d="M457.726,475.837c0,.091-91.2.164-203.674.164-112.513,0-203.693-.073-203.693-.164s91.18-.163,203.693-.163C366.527,475.674,457.726,475.747,457.726,475.837Z" transform="translate(-50.359 -475.674)"/></g></g><g transform="translate(-16190.103 -21258.633)"><g transform="translate(0 0)"><g transform="translate(11.74)"><rect class="a" width="290.443" height="177.788" rx="14.567"/></g><g transform="translate(0 164.639)"><path class="a" d="M0,0H314.672a0,0,0,0,1,0,0V0a15.556,15.556,0,0,1-15.556,15.556H15.556A15.556,15.556,0,0,1,0,0V0A0,0,0,0,1,0,0Z"/></g><g transform="translate(19.942 7.064)"><rect class="b" width="274.038" height="150.14"/></g><g transform="translate(128.735 164.465)"><path class="b" d="M243.036,459.478c-.005,0,.1-.005.3-.008l.921-.009,3.579-.019,13.278-.05,44.4-.087h.327l-.165.262-1.763,2.794-1.864,2.955-.054.086h-.108l-54.945-.1h-.048l-.025-.037-2.878-4.331q-.467-.71-.723-1.1c-.16-.245-.232-.363-.232-.363s.1.132.273.381l.768,1.1,2.935,4.227-.072-.036,54.945-.1-.162.087,1.864-2.956,1.763-2.794.162.261-44.215-.088-13.341-.049-3.634-.019-.952-.008C243.155,459.484,243.036,459.478,243.036,459.478Z" transform="translate(-243.036 -459.304)"/></g></g><g transform="translate(11.74 164.476)"><g transform="translate(0 0.163)"><line class="a" x2="290.443"/></g><g transform="translate(0)"><path class="b" d="M405.853,459.48c0,.091-65.022.164-145.214.164-80.22,0-145.228-.073-145.228-.164s65.009-.163,145.228-.163C340.831,459.317,405.853,459.39,405.853,459.48Z" transform="translate(-115.411 -459.317)"/></g></g></g><g transform="translate(-16131.838 -21281.764)"><g transform="translate(153.643 0.21)"><path class="a" d="M349.916,238.477h0c4.481,0,8.113,3.363,8.113,7.51V261.4h-24.26V247.181c0-4.807,4.21-8.7,9.4-8.7Z" transform="translate(-333.769 -238.477)"/></g><g transform="translate(67.545 0)"><path class="a" d="M342.094,238.44c0,.09-22.89.145-51.121.122s-51.125-.115-51.125-.205,22.886-.144,51.125-.121S342.094,238.35,342.094,238.44Z" transform="translate(-239.848 -238.23)"/></g><g transform="translate(20.202 0.127)"><path class="c" d="M337.579,238.443l-10.117-.065-14.7.083H204.8c-9.168,0-16.6,6.879-16.6,15.366V418.946H328.022V246.886C328.432,238.462,337.579,238.443,337.579,238.443Z" transform="translate(-188.204 -238.379)"/></g><g transform="translate(19.865 0.022)"><path class="a" d="M337.548,238.425l-84.3.171-42.153.03-5.269,0c-.883-.016-1.747.031-2.614.075a18.361,18.361,0,0,0-2.557.431,16.6,16.6,0,0,0-8.6,5.122,15.048,15.048,0,0,0-2.574,4.159,11.246,11.246,0,0,0-.419,1.138l-.324,1.166a15.432,15.432,0,0,0-.3,2.388c-.074,3.231-.017,6.5-.031,9.744l.113,156.077-.337-.311,139.818.084-.247.227.068-92.825.081-46.411.05-23.206.012-5.8.006-2.9a8.807,8.807,0,0,1,.065-1.449,7.363,7.363,0,0,1,.246-1.432,7.676,7.676,0,0,1,3.386-4.726,10.166,10.166,0,0,1,2.811-1.257A12.7,12.7,0,0,1,337.548,238.425Zm0,0a12.674,12.674,0,0,0-3.075.507,10.147,10.147,0,0,0-2.8,1.264,7.63,7.63,0,0,0-3.351,4.717,7.22,7.22,0,0,0-.239,1.427,8.846,8.846,0,0,0-.059,1.446l.006,2.9.013,5.8.049,23.206.081,46.412.068,92.821v.228h-.246l-139.818.084h-.336v-.312l.113-156.077c.02-3.255-.034-6.495.046-9.763a15.8,15.8,0,0,1,.314-2.45l.333-1.2a11.6,11.6,0,0,1,.432-1.167,15.443,15.443,0,0,1,2.647-4.263,17.021,17.021,0,0,1,8.827-5.24,18.786,18.786,0,0,1,2.621-.439c.888-.044,1.777-.09,2.651-.073l5.269,0,42.152.029Z" transform="translate(-187.837 -238.256)"/></g><g transform="translate(41.224 29.919)"><path class="d" d="M211.175,273.488h24.4l.039,7.564h-1.167q-.575-4.059-3.285-5.493a10.816,10.816,0,0,0-4.552-.863v19.76a3.614,3.614,0,0,0,.782,2.749q.781.68,3.254.679v.953H216.2v-.953a5.058,5.058,0,0,0,3.156-.687,3.624,3.624,0,0,0,.781-2.741V274.7a11.092,11.092,0,0,0-4.551.863q-2.91,1.47-3.285,5.493h-1.168Z" transform="translate(-211.136 -273.488)"/></g><g transform="translate(80.716 31.134)"><path class="d" d="M314.334,275.41c0,.271-13.459.49-30.057.49s-30.061-.219-30.061-.49,13.456-.49,30.061-.49S314.334,275.14,314.334,275.41Z" transform="translate(-254.216 -274.92)"/></g><g transform="translate(81.922 40.025)"><path class="b" d="M278.776,285.888c0,.271-5.2.49-11.621.49s-11.623-.22-11.623-.49,5.2-.49,11.623-.49S278.776,285.617,278.776,285.888Z" transform="translate(-255.532 -285.398)"/></g><g transform="translate(31.725 67.147)"><path class="b" d="M244.918,317.85c0,.271-9.883.49-22.071.49s-22.073-.219-22.073-.49,9.881-.49,22.073-.49S244.918,317.579,244.918,317.85Z" transform="translate(-200.774 -317.36)"/></g><g transform="translate(81.713 67.147)"><path class="d" d="M299.448,317.85c0,.271-9.883.49-22.071.49s-22.074-.219-22.074-.49,9.88-.49,22.074-.49S299.448,317.579,299.448,317.85Z" transform="translate(-255.304 -317.36)"/></g><g transform="translate(31.725 74.389)"><path class="b" d="M244.918,326.385c0,.271-9.883.49-22.071.49s-22.073-.219-22.073-.49,9.881-.491,22.073-.491S244.918,326.115,244.918,326.385Z" transform="translate(-200.774 -325.895)"/></g><g transform="translate(31.725 81.633)"><path class="d" d="M244.918,334.921c0,.271-9.883.491-22.071.491s-22.073-.22-22.073-.491,9.881-.49,22.073-.49S244.918,334.651,244.918,334.921Z" transform="translate(-200.774 -334.431)"/></g><g transform="translate(81.922 54.778)"><path class="b" d="M278.776,303.274c0,.271-5.2.49-11.621.49s-11.623-.219-11.623-.49,5.2-.49,11.623-.49S278.776,303,278.776,303.274Z" transform="translate(-255.532 -302.784)"/></g><g transform="translate(129.983 67.147)"><path class="b" d="M323.455,317.85c0,.271-3.469.49-7.747.49s-7.749-.219-7.749-.49,3.469-.49,7.749-.49S323.455,317.579,323.455,317.85Z" transform="translate(-307.959 -317.36)"/></g><g transform="translate(109.742 40.025)"><path class="b" d="M325.762,285.888c0,.271-8.929.49-19.94.49s-19.943-.22-19.943-.49,8.927-.49,19.943-.49S325.762,285.617,325.762,285.888Z" transform="translate(-285.879 -285.398)"/></g><g transform="translate(81.922 47.088)"><path class="b" d="M321.435,294.211c0,.271-14.755.49-32.95.49s-32.953-.219-32.953-.49,14.751-.49,32.953-.49S321.435,293.941,321.435,294.211Z" transform="translate(-255.532 -293.721)"/></g><g transform="translate(81.713 74.389)"><path class="b" d="M319.07,326.385c0,.271-14.275.49-31.881.49s-31.884-.219-31.884-.49,14.272-.491,31.884-.491S319.07,326.115,319.07,326.385Z" transform="translate(-255.304 -325.895)"/></g><g transform="translate(85.644 95.358)"><path class="d" d="M319.427,351.1c0,.27-13.395.49-29.916.49s-29.919-.22-29.919-.49,13.392-.491,29.919-.491S319.427,350.826,319.427,351.1Z" transform="translate(-259.592 -350.606)"/></g><g transform="translate(85.644 102.408)"><path class="b" d="M319.427,359.4c0,.271-13.395.49-29.916.49s-29.919-.219-29.919-.49,13.392-.49,29.919-.49S319.427,359.133,319.427,359.4Z" transform="translate(-259.592 -358.914)"/></g><g transform="translate(85.644 109.457)"><path class="b" d="M319.427,367.711c0,.271-13.395.491-29.916.491s-29.919-.22-29.919-.491,13.392-.49,29.919-.49S319.427,367.44,319.427,367.711Z" transform="translate(-259.592 -367.221)"/></g><g transform="translate(85.644 116.506)"><path class="b" d="M319.427,376.018c0,.27-13.395.49-29.916.49s-29.919-.22-29.919-.49,13.392-.491,29.919-.491S319.427,375.748,319.427,376.018Z" transform="translate(-259.592 -375.528)"/></g><g transform="translate(85.644 123.556)"><path class="b" d="M294.038,384.325c0,.135-1.928.258-5.045.346s-7.423.144-12.177.144-9.064-.055-12.181-.144-5.044-.211-5.044-.346,1.928-.258,5.044-.346,7.424-.143,12.181-.143,9.061.054,12.177.143S294.038,384.191,294.038,384.325Z" transform="translate(-259.592 -383.836)"/></g><g transform="translate(83.1 82.012)"><path class="b" d="M308.354,335.368c0,.271-11.538.49-25.768.49s-25.77-.219-25.77-.49,11.535-.49,25.77-.49S308.354,335.1,308.354,335.368Z" transform="translate(-256.817 -334.878)"/></g><g transform="translate(0 92.833)"><g transform="translate(20.478 3.349)"><path class="e" d="M242.852,352.039l3.175,54.413-57.477,6.664-.045-61.538Z" transform="translate(-188.505 -351.578)"/></g><g transform="translate(0 0)"><g transform="translate(0 0)"><g transform="translate(0 0)"><path class="f" d="M0,0,57.707.045l.054,77.986L.054,77.986Z" transform="translate(0 57.76) rotate(-89.632)"/></g></g></g><g transform="translate(2.714 3.652)"><path class="d" d="M0,0,50.44.039l.051,72.507L.051,72.507Z" transform="translate(0 50.49) rotate(-89.632)"/></g><g class="g" transform="translate(2.714 22.931)"><path d="M169.128,405.865l25.547-31.212,15.554,19.715,10.715-10.426,20.7,22.354Z" transform="translate(-169.128 -374.653)"/></g><g class="g" transform="translate(39.218 13.902)"><path d="M220.368,369.333a5.727,5.727,0,1,1-5.673-5.319A5.517,5.517,0,0,1,220.368,369.333Z" transform="translate(-208.948 -364.014)"/></g></g><g transform="translate(83.1 163.561)"><path class="a" d="M259.228,432.1a1.209,1.209,0,1,1-1.206-1.117A1.163,1.163,0,0,1,259.228,432.1Z" transform="translate(-256.817 -430.98)"/><g transform="translate(7.157)"><path class="a" d="M267.036,432.1a1.21,1.21,0,1,1-1.205-1.117A1.163,1.163,0,0,1,267.036,432.1Z" transform="translate(-264.624 -430.98)"/></g><g transform="translate(14.314)"><path class="a" d="M274.844,432.1a1.21,1.21,0,1,1-1.206-1.117A1.164,1.164,0,0,1,274.844,432.1Z" transform="translate(-272.432 -430.98)"/></g></g><g transform="translate(82.049 138.245)"><path class="d" d="M299.814,401.636c0,.27-9.883.49-22.071.49s-22.074-.22-22.074-.49,9.881-.49,22.074-.49S299.814,401.366,299.814,401.636Z" transform="translate(-255.67 -401.146)"/></g><g transform="translate(82.049 145.488)"><path class="b" d="M319.436,410.171c0,.271-14.276.491-31.881.491s-31.885-.22-31.885-.491,14.273-.489,31.885-.489S319.436,409.9,319.436,410.171Z" transform="translate(-255.67 -409.682)"/></g></g></g></svg>