<svg xmlns="http://www.w3.org/2000/svg" xmlns:xlink="http://www.w3.org/1999/xlink" width="329" height="314.533" viewBox="0 0 329 314.533"><defs><style>.a,.c,.m{fill:#1bb1b2;}.a,.b,.e{stroke:#1a2e35;}.a,.b,.e,.h{stroke-linecap:round;stroke-linejoin:round;}.b,.d,.l{fill:#fff;}.d{opacity:0.7;}.e,.h{fill:none;}.f{fill:#1a2e35;}.g{opacity:0.2;}.h{stroke:#fff;}.i{clip-path:url(#a);}.j{fill:rgba(0,0,0,0.7);opacity:0.3;}.k,.m{opacity:0.4;}.n{clip-path:url(#b);}.o{clip-path:url(#c);}.p{clip-path:url(#d);}.q{clip-path:url(#e);}.r{clip-path:url(#f);}</style><clipPath id="a"><path class="a" d="M1208.123,425.585c11.778,6.307,24.129-.2,24.129-.2,9.7,6.5,14.677,5.338,14.677,5.338l24.378,40.37,106.539-2.1s1.119-28.173,0-37.475c-5.8-48.193-29.664-57.991-54.7-64.159s-50.833-5.181-71.4.3c-28,7.462-43.624,22.5-43.624,22.5s-14.507,2.92-17.718,11.3C1190.405,401.465,1201.526,422.053,1208.123,425.585Z" transform="translate(-1190.405 -363.134)"/></clipPath><clipPath id="b"><path class="b" d="M1224.894,478.213,1194.87,493.7l-51.2-6.4-2.224-2.312,2.137-.992h.007l30.156-13.973a51.56,51.56,0,0,1,26.363-1.305,93.685,93.685,0,0,1,21.587,7.767C1223.749,477.52,1224.894,478.213,1224.894,478.213Z" transform="translate(-1141.443 -467.584)"/></clipPath><clipPath id="c"><path class="b" d="M1300.473,484.965l-2.13,3L1265.3,503.036l-50.6-6.578,3.078-1.59,26.947-13.893a68.824,68.824,0,0,1,21.47-3.187c11.027.044,31.68,6.367,34.05,7.1C1300.393,484.943,1300.473,484.965,1300.473,484.965Z" transform="translate(-1214.703 -477.788)"/></clipPath><clipPath id="d"><path class="a" d="M1215.929,429.529c-3.713,12.891-20.944,18.886-20.944,18.886s-23.282,8.847-24.808-12.931c0,0,1.157-10.639,8.107-14.6,0,0,5.042-10.021,12.66-14.307" transform="translate(-1170.177 -406.578)"/></clipPath><clipPath id="e"><path class="a" d="M1402.252,383.592c15.348.871,46.042,32.021,52.973,39.714s18.257,19.2,21.907,28.3c5.569,13.89-8.417,26.664-22.279,25.931s-42.7-30.581-42.7-30.581-22-20.5-15.952-39.022" transform="translate(-1395.148 -383.592)"/></clipPath><clipPath id="f"><path class="a" d="M1438.721,453.3c-15.2,2.058-33.646,11.014-39.241,9.147s-18.854,6.342-18.854,6.342l-7.8.1s-5.771,12.786-2.307,22.048l8.1.8s-.593,5.125,20.592,6.488,60.484,2.978,68.14-10.817" transform="translate(-1369.415 -453.303)"/></clipPath></defs><g transform="translate(16196.397 20846.016)"><g transform="translate(-16184.019 -20835.104)"><path class="c" d="M1111.689,263.185a79.232,79.232,0,0,1,16.6-44.216c13.668-17.829,35.053-27.268,56.9-30.188,31.745-4.243,59.691,3.235,89.329-14.082,9.141-5.341,17.432-12.061,26.684-17.209,27.29-15.186,57.981-3.942,76.8,19.283,39.257,48.449,37.727,122.488,19.2,178.925-8.316,25.328-27.172,45.827-51.221,57.3-54.391,25.958-127.1-1.036-171.979-34.842C1140.532,352.951,1109.065,307.027,1111.689,263.185Z" transform="translate(-1111.536 -150.557)"/><path class="d" d="M1111.689,263.185a79.232,79.232,0,0,1,16.6-44.216c13.668-17.829,35.053-27.268,56.9-30.188,31.745-4.243,59.691,3.235,89.329-14.082,9.141-5.341,17.432-12.061,26.684-17.209,27.29-15.186,57.981-3.942,76.8,19.283,39.257,48.449,37.727,122.488,19.2,178.925-8.316,25.328-27.172,45.827-51.221,57.3-54.391,25.958-127.1-1.036-171.979-34.842C1140.532,352.951,1109.065,307.027,1111.689,263.185Z" transform="translate(-1111.536 -150.557)"/></g><g transform="translate(-16143.049 -20734.059)"><path class="e" d="M1172.161,290.919c4.626-1.887,7.773.782,9.244,2.547,1.133-2,3.763-5.187,8.651-4.154,5.3,1.128,7.689,7.544,3.884,13.941-2.743,4.6-7.516,8.005-9.975,9.547-.293.186-.563.343-.782.469-.239-.085-.532-.192-.853-.322-2.695-1.079-8-3.581-11.507-7.619C1165.93,299.713,1167.142,292.974,1172.161,290.919Z" transform="translate(-1167.714 -289.112)"/><path class="e" d="M1203.2,327.622a6.3,6.3,0,0,0,8.166,1.3c2.24,1.1,2.581,4.233.163,6.659a14.486,14.486,0,0,1-5.528,3.136c-.152.05-.29.09-.4.121-.1-.065-.215-.145-.344-.24a14.44,14.44,0,0,1-4.277-4.7C1199.423,330.844,1200.724,327.973,1203.2,327.622Z" transform="translate(-1176.537 -299.526)"/></g><g transform="translate(-16162.431 -20680.283)"><path class="e" d="M1144.255,365.486s5.595-2.843,7.332-2.625-3.088,2.188,0,2.188,4.245-1.094,4.245-.438.224,1.2,1.752.874a6.357,6.357,0,0,1,2.685.1,15.815,15.815,0,0,0,4.007-.645c1.4-.438,2.939-.985,3.9-.219s.579,1.181,4.052.863a25.61,25.61,0,0,1,5.981.107" transform="translate(-1141.982 -362.85)"/><path class="e" d="M1144.067,383.05c2.718-.524,8.737-3.477,6.99-3.149s-5.049,2.3-.777,2.406,5.242-1.422,6.407-1.86,5.242,0,5.825,0-3.3.828,0,1.015,3.621-.406,4.918,0a8.962,8.962,0,0,0,3.432,0s.607.626,3.7.735,5.424,0,5.424,0" transform="translate(-1141.931 -367.459)"/><path class="e" d="M1141.138,373.754s8.155-.373,9.708-.811.777-1.531,2.913-1.093,3.495-.422,5.34-.1,6.641.009,4.563-.774-5.994,1.859-1.541,1.968,6.4-.319,6.783-.651,2.73.651,2.73.651a10.768,10.768,0,0,1,3.677-.651c1.165.214,6.019.761,6.019.761" transform="translate(-1141.138 -365.01)"/></g><g transform="translate(-15924.62 -20680.758)"><path class="e" d="M1467.385,373.543a13.18,13.18,0,0,0,.728,6.771,12.828,12.828,0,0,0,1.576,2.953,13.352,13.352,0,1,0-2.3-9.723Z" transform="translate(-1467.23 -362.198)"/><path class="e" d="M1476.882,386.606s2.981-3.032,6.584-2.482a6.731,6.731,0,0,1,4.958,3.647" transform="translate(-1469.843 -368.116)"/><path class="e" d="M1491.2,373.073a5.4,5.4,0,0,0,4.1,2.773" transform="translate(-1473.719 -365.142)"/><path class="e" d="M1493.616,377.067a1.162,1.162,0,1,1-.973-1.324A1.161,1.161,0,0,1,1493.616,377.067Z" transform="translate(-1473.748 -365.862)"/><path class="e" d="M1494.368,378.25s1.139.289.6,1.574,1.705,1.576,2.035,2.024-.777,2.109.452,2.637,1.13,1.6.768,2.46a1.715,1.715,0,0,0,.213,1.216" transform="translate(-1474.577 -366.544)"/><path class="e" d="M1492.648,378.9c.007,1.167-.394,1.9,1.266,3.015s.033,2.4.328,3.074,2.18.315,1.068,2.379a3.473,3.473,0,0,0,.263,3.318" transform="translate(-1474.101 -366.72)"/><path class="e" d="M1480.616,371.728a5.4,5.4,0,0,1-4.741,1.426" transform="translate(-1469.571 -364.778)"/><path class="e" d="M1477.907,374.673a1.162,1.162,0,1,0,1.324-.974A1.162,1.162,0,0,0,1477.907,374.673Z" transform="translate(-1470.117 -365.308)"/><path class="e" d="M1468.441,383.976a1.708,1.708,0,0,0,.565-1.1c-.089-.931.129-1.983,1.466-2.119s.769-2.053,1.217-2.383,2.674.067,2.545-1.326,1.039-1.325,1.039-1.325" transform="translate(-1467.558 -365.86)"/><path class="e" d="M1470.6,387.235a3.473,3.473,0,0,0,1.238-3.089c-.446-2.3,1.241-1.4,1.728-1.953s-.68-2.274,1.229-2.837,1.753-1.389,2.107-2.5" transform="translate(-1468.143 -366.166)"/></g><g transform="translate(-15986.555 -20791.205)"><path class="e" d="M1383.414,236.355a18.947,18.947,0,0,0,5.517,8.077,18.445,18.445,0,0,0,4,2.668,19.177,19.177,0,1,0-9.516-10.745Z" transform="translate(-1382.305 -210.749)"/><path class="e" d="M1415.428,230.231s-1.855,3.5-9.951,6.008a37.915,37.915,0,0,1-12.92,1.76s3.343,13.433,16.27,10.052S1415.428,230.231,1415.428,230.231Z" transform="translate(-1385.081 -216.023)"/><path class="e" d="M1410.723,222.786s-.14-5.569,4.932-.877" transform="translate(-1389.999 -213.261)"/><path class="e" d="M1397.322,227.776s-3.207-2.977-3.547,2.131" transform="translate(-1385.41 -215.125)"/><path class="e" d="M1410.168,246.1s3.051-3.519,5.254-3.126,1.729,4.6-4.474,6.8-8.831-.675-8.678-2.91S1410.168,246.1,1410.168,246.1Z" transform="translate(-1387.709 -219.466)"/><path class="e" d="M1419.122,221.838s5.941-1.677,5.019,1.058S1419.122,221.838,1419.122,221.838Z" transform="translate(-1392.273 -213.613)"/><path class="e" d="M1390.72,231.576s-5.019,1.122-3.807,3.086S1390.72,231.576,1390.72,231.576Z" transform="translate(-1383.502 -216.388)"/></g><g transform="translate(-15956.808 -20744.07)"><path class="e" d="M1425.165,278.216s6.013-3.056,7.878-2.82-3.318,2.35,0,2.35,4.562-1.176,4.562-.47.241,1.293,1.883.94,2.057.093,2.886.106a16.956,16.956,0,0,0,4.306-.694c1.5-.47,3.159-1.057,4.2-.235s.622,1.27,4.354.928a27.534,27.534,0,0,1,6.427.115" transform="translate(-1423.655 -275.383)"/><path class="e" d="M1426.444,319.631s6.013-3.056,7.879-2.82-3.317,2.35,0,2.35,4.562-1.175,4.562-.47.241,1.293,1.883.94,2.057.093,2.886.106a16.965,16.965,0,0,0,4.306-.694c1.5-.47,3.158-1.057,4.2-.235s.621,1.27,4.354.928a27.536,27.536,0,0,1,6.428.115" transform="translate(-1424.002 -286.595)"/><path class="e" d="M1425.165,287.578c3.434-.527,11.038-3.5,8.831-3.166s-6.378,2.309-.982,2.419,6.623-1.429,8.095-1.869,6.623,0,7.359,0-4.17.831,0,1.02,4.575-.408,6.213,0a14.178,14.178,0,0,0,4.336,0s.766.629,4.676.739,6.853,0,6.853,0" transform="translate(-1423.655 -277.821)"/><path class="e" d="M1426.242,338.5c2.921-.564,9.389-3.737,7.511-3.384s-5.425,2.468-.835,2.585,5.634-1.528,6.886-2,5.634,0,6.26,0-3.547.889,0,1.091,3.891-.437,5.283,0a9.645,9.645,0,0,0,3.689,0s.652.672,3.978.79,5.829,0,5.829,0" transform="translate(-1423.947 -291.548)"/><path class="e" d="M1425.165,312.362c2.9-.564,9.33-3.737,7.464-3.384s-5.391,2.468-.829,2.585,5.6-1.528,6.842-2,5.6,0,6.22,0-3.525.888,0,1.09,3.867-.437,5.251,0a9.522,9.522,0,0,0,3.665,0s.648.672,3.953.79,5.793,0,5.793,0" transform="translate(-1423.655 -284.471)"/><path class="e" d="M1423.743,295.98c2.868-.7,3.442-2.948,5.354-2.245a6.5,6.5,0,0,0,4.781-.134,8.552,8.552,0,0,1,3.251-1.13c.765,0,0,.842,0,1.755s2.486.351,3.06,0,1.53-.772,2.2,0l.669.772s1.341,0,1.723-.772a3.1,3.1,0,0,1,3.441-1.755c1.913.422-.573.906.765,1.716s1.721-1.716,3.06-.593,0,1.685,1.147,1.685,7.145-.97,9.944-.281" transform="translate(-1423.27 -279.988)"/><path class="e" d="M1425.165,304.274s8.708-.4,10.367-.871.829-1.645,3.11-1.175,3.732-.453,5.7-.109,7.092.011,4.873-.831-6.4,2-1.645,2.116,6.828-.343,7.243-.7,2.916.7,2.916.7,2.682-.93,3.927-.7,6.428.818,6.428.818" transform="translate(-1423.655 -282.354)"/><path class="e" d="M1423.095,328.516s8.763-.4,10.432-.871.835-1.645,3.13-1.176,3.756-.452,5.738-.109,7.137.011,4.9-.831-6.441,2-1.656,2.116,6.872-.343,7.289-.7,2.934.7,2.934.7,2.7-.93,3.952-.7,6.468.817,6.468.817" transform="translate(-1423.095 -288.917)"/></g><g transform="translate(-16084.096 -20845.344)"><path class="e" d="M1312.191,192.42a21.879,21.879,0,1,0-36.426,9.89l-.044,2.887,19.255,5.223,1.421-2.515A21.862,21.862,0,0,0,1312.191,192.42Z" transform="translate(-1254.141 -144.174)"/><path class="e" d="M1287.678,241.806l-11.741-3.185a3.123,3.123,0,0,1-2.261-3.533l2.559-15.153,20.629,5.595-5.448,14.37A3.123,3.123,0,0,1,1287.678,241.806Z" transform="translate(-1255.343 -159.098)"/><path class="e" d="M1288.542,249.148c-.557,2.057-3.738,2.983-7.1,2.071s-5.64-3.32-5.083-5.376" transform="translate(-1256.058 -166.112)"/><path class="e" d="M1283.162,196.369l4.9,1.329,4.8-5.6.2,13.318,6.71-10,.551,5.339,3.54.96" transform="translate(-1257.923 -151.561)"/><line class="e" y1="13.174" x2="6.728" transform="translate(46.602)"/><line class="e" y1="3.691" x2="10.746" transform="translate(65.946 23.203)"/><line class="e" x2="9.982" y2="1.51" transform="translate(65.56 51.811)"/><line class="e" x1="5.413" y1="15.688" transform="translate(16.41 1.51)"/><line class="e" x1="7.448" y1="1.127" transform="translate(0 41.891)"/></g><g transform="translate(-16136.277 -20784.514)"><path class="e" d="M1180.35,238.427c2.867-.554,4.649-3.227,7.768-2.781l.446.446-1.337,1.337c1.782,1.337,3.565,0,5.347,0,.446,0,.446.891.891.891,4.01.446,8.021-.446,12.031-.891a5.839,5.839,0,0,0,5.8,1.037" transform="translate(-1177.907 -224.169)"/><path class="e" d="M1180.148,257.328c3.014-.215,5.242-2,7.916-3.334-1.337.891-2.673,0-3.565,1.782,2.673,1.782,6.238,0,8.912-.891,2.228-.891,4.457-.446,6.625-.34-.83.376-1.948-.155,0,0-.83.376-2.372.8-.521,1.044,1.828.243,3.99-.539,5.74.034" transform="translate(-1177.852 -229.15)"/><path class="e" d="M1179.071,231.157c2.9-.563,9.33-3.736,7.464-3.384s-5.391,2.468-.829,2.585,5.6-1.528,6.842-2,5.6,0,6.22,0-3.525.889,0,1.091,3.866-.438,5.251,0a9.521,9.521,0,0,0,3.665,0s.648.672,3.953.789,14.151.629,14.151.629" transform="translate(-1177.561 -222.044)"/><path class="e" d="M1179.071,223.07s8.708-.4,10.367-.871.829-1.645,3.11-1.175,3.731-.453,5.7-.109,7.092.01,4.873-.831-6.4,2-1.645,2.115,6.828-.342,7.243-.7,2.916.7,2.916.7,2.682-.93,3.926-.7,6.428.818,6.428.818" transform="translate(-1177.561 -219.927)"/><path class="e" d="M1177,247.311s8.764-.4,10.433-.871.835-1.645,3.13-1.175,3.756-.453,5.738-.109,7.136.01,4.9-.831-6.441,2-1.656,2.115,6.872-.342,7.289-.7,2.934.7,2.934.7,2.7-.93,3.952-.7,6.468.818,6.468.818" transform="translate(-1177 -226.49)"/></g><g transform="translate(-16196.025 -20762.98)"><path class="f" d="M1307.474,268.67s2.978-23.734,19.5-18.449,20.692,23.986,18.11,40.868.346,19.978.346,19.978-4.759-5.487-3.085-17.521c0,0-2.538,13.5-.236,18.885,0,0-1.2,2.7-4.764,1.857,0,0-6.011-14.224-5.967-27.437S1307.474,268.67,1307.474,268.67Z" transform="translate(-1152.576 -249.453)"/><g class="g" transform="translate(161.8 2.535)"><path class="h" d="M1316.937,263.355s2.436-11.113,12.257-10.391" transform="translate(-1316.937 -252.93)"/><path class="h" d="M1326.7,270.241s3.04-7.347,8.71-6.945,11.536,11.07,11.056,19.945-4.747,21.678-.883,31.505" transform="translate(-1319.581 -255.732)"/><path class="h" d="M1332.461,278.823s6.934-2.01,8.773,4.46,0,21.066,0,21.066" transform="translate(-1321.14 -259.86)"/></g><path class="a" d="M1305.272,272.275s.581-3.174,5.63-2.164,14.8,5.77,10,9.953S1305.272,272.275,1305.272,272.275Z" transform="translate(-1151.979 -254.992)"/><g transform="translate(69.523 73.483)"><g transform="translate(0 9.421)"><path class="c" d="M1208.123,425.585c11.778,6.307,24.129-.2,24.129-.2,9.7,6.5,14.677,5.338,14.677,5.338l24.378,40.37,106.539-2.1s1.119-28.173,0-37.475c-5.8-48.193-29.664-57.991-54.7-64.159s-50.833-5.181-71.4.3c-28,7.462-43.624,22.5-43.624,22.5s-14.507,2.92-17.718,11.3C1190.405,401.465,1201.526,422.053,1208.123,425.585Z" transform="translate(-1190.405 -363.134)"/><g class="i"><path class="j" d="M1367.93,454.576l-108.071-10.932-4-6.622s-4.981,1.167-14.68-5.338a29.562,29.562,0,0,1-17.78,2.472c14.09-14.943,2.6-29.134,2.6-29.134a10.611,10.611,0,0,1,6.673,6.4s-.058-7.5,1.954-6.4,8.379,12.857,8.379,12.857c-3.18-28.223,7.869-31.49,7.869-31.49-6.841,20.23,9.729,48.978,35.115,55.228s57.992,3.107,57.992,3.107c-2.888-3.617-2.1-10.618-2.1-10.618,2.472,2.9,11.909,7.512,11.909,7.512-3.756-9.32,3.748-16.547,3.748-16.547Z" transform="translate(-1199.339 -369.43)"/><path class="j" d="M1350.943,390.165c-17.707,19.661-42.619,6.593-42.619,6.593-17.926,6.345-24.416-11.741-24.584-13.4-.846-8.5,3.114-14.556,9.218-18.874a149.628,149.628,0,0,1,55.425,2.881c1.787.438,3.566.9,5.331,1.393C1357.244,374.828,1358.061,382.267,1350.943,390.165Z" transform="translate(-1215.643 -363.134)"/></g><path class="e" d="M1208.123,425.585c11.778,6.307,24.129-.2,24.129-.2,9.7,6.5,14.677,5.338,14.677,5.338l24.378,40.37,106.539-2.1s1.119-28.173,0-37.475c-5.8-48.193-29.664-57.991-54.7-64.159s-50.833-5.181-71.4.3c-28,7.462-43.624,22.5-43.624,22.5s-14.507,2.92-17.718,11.3C1190.405,401.465,1201.526,422.053,1208.123,425.585Z" transform="translate(-1190.405 -363.134)"/></g><path class="a" d="M1304.326,395.477s-9.827-2.727-4.418-18.691,10.736-26.776,26.637-26.568,27.287,13.812,28.278,19.14-6.084,23.8-20.741,29.539" transform="translate(-1219.61 -350.215)"/><path class="e" d="M1259.955,425.886s-5.787-18.887-1.408-28.541" transform="translate(-1208.41 -362.974)"/><g class="k" transform="translate(21.649 19.023)"><path class="e" d="M1318.336,438.216a69.8,69.8,0,0,0,2.3,16.374" transform="translate(-1246.689 -393.062)"/><path class="e" d="M1319.05,427.7a24.17,24.17,0,0,0-.563,3.976" transform="translate(-1246.729 -390.216)"/><path class="e" d="M1339.183,461.1c.265.8.554,1.594.876,2.374" transform="translate(-1252.332 -399.259)"/><path class="e" d="M1332.461,429.57c1.854,6.8,1.854,14.1,4.1,20.324" transform="translate(-1250.513 -390.722)"/><path class="e" d="M1348.53,427.7s9.04,19.491,10.579,28.5" transform="translate(-1254.863 -390.216)"/><path class="e" d="M1369.011,430.839c4.022,8.844,7.708,18.018,9.828,27.523" transform="translate(-1260.408 -391.065)"/><path class="e" d="M1364.354,421.108c.74,1.448,1.447,2.914,2.141,4.386" transform="translate(-1259.147 -388.431)"/><path class="e" d="M1306.132,423.218a85.094,85.094,0,0,0-3.568,26.866" transform="translate(-1242.406 -389.002)"/><path class="e" d="M1287.3,426.028a58.035,58.035,0,0,0-2.863,21.725" transform="translate(-1237.491 -389.763)"/><path class="e" d="M1293.512,413.459a27.73,27.73,0,0,0-3.385,5.944" transform="translate(-1239.052 -386.36)"/><path class="e" d="M1277.219,400.272s-9.745,11.156-10.93,24.234" transform="translate(-1232.598 -382.79)"/><path class="e" d="M1389.307,428.1a39.221,39.221,0,0,1,1.806,3.937" transform="translate(-1265.902 -390.325)"/><path class="e" d="M1369.415,404.157a59.061,59.061,0,0,1,12.971,14.774" transform="translate(-1260.517 -383.842)"/><path class="e" d="M1378.6,390.387s10.963,1.824,15.772,8.171" transform="translate(-1263.002 -380.114)"/><path class="e" d="M1378.6,376.42s7.946-.906,14.514,2.271" transform="translate(-1263.002 -376.3)"/><path class="e" d="M1273.278,387.246a14.652,14.652,0,0,1,3.91-.6" transform="translate(-1234.49 -379.102)"/><path class="e" d="M1263.415,391.226a27.294,27.294,0,0,1,4.332-2.346" transform="translate(-1231.82 -379.706)"/><path class="e" d="M1248.994,386.38c-4.669-.451-21.056,11.773-21.056,11.773a9.4,9.4,0,0,0-7.846,2.953" transform="translate(-1220.091 -379.026)"/><path class="e" d="M1248.857,415.252l-5.385,3.116s-2.921,4.892-7.352,4.742" transform="translate(-1224.43 -386.846)"/><path class="e" d="M1250.452,439.43s-2.463,1.5-4.386,1.089c0,0-8.417,5.937-13.152,3.821" transform="translate(-1223.562 -393.391)"/></g><g class="k" transform="translate(85.172 4.203)"><path class="e" d="M1319.037,408.448s-2.124,2.693,1.63,6.155" transform="translate(-1310.24 -370.183)"/><path class="e" d="M1336.607,413.617a6.54,6.54,0,0,1,.313,2.385" transform="translate(-1315.158 -371.582)"/><path class="e" d="M1332.31,406.578a16.378,16.378,0,0,1,1.993,2.661" transform="translate(-1313.995 -369.677)"/><path class="e" d="M1344.491,398.69s4.257.962,5.909,7.116" transform="translate(-1317.293 -367.541)"/><path class="e" d="M1364.034,392.319a14.159,14.159,0,0,1,1.3,3.665" transform="translate(-1322.584 -365.816)"/><path class="e" d="M1353.805,384.871a9.823,9.823,0,0,1,5.444,2.727" transform="translate(-1319.814 -363.8)"/><path class="e" d="M1355.783,368.625s6.443-3.69,11.636,4.388" transform="translate(-1320.35 -359.174)"/><path class="e" d="M1348.543,357.668a5.5,5.5,0,0,1,4.142-1.69" transform="translate(-1318.39 -355.978)"/><path class="e" d="M1307.4,406.592s-1.009-3.2,1.475-5" transform="translate(-1307.196 -368.327)"/></g></g><g transform="translate(0 138.544)"><path class="l" d="M1423.143,479.32v53.062H1095.073l.182-92.953,42.415,5.163,81.773,9.947,126.011,15.329,64.708,7.869Z" transform="translate(-1095.073 -439.429)"/><path class="m" d="M1411.694,492.14c-9.583,12.011-103.921,8.241-108.683,5.127a39.01,39.01,0,0,0-10.859-4.551s-22.352,2.815-26.589.394-13.083-1.539-13.083-1.539l-21.025,8.569L1118.563,485.16l26.976-9.327s-16.642-1.714-19.865-7.468,18.356-21.856,18.356-21.856l81.773,9.947L1196.274,459l-15.621,7.154,40.971,7.774,45.922-1.838,84.267-.306,64.708,7.869C1416.617,483.031,1415.545,487.3,1411.694,492.14Z" transform="translate(-1101.432 -441.346)"/><line class="e" x2="327.886" y2="39.889" transform="translate(0.185 0.001)"/></g><g transform="translate(29.956 159.077)"><path class="a" d="M1243.384,504.314l-107.235-13.969,38.577-16.893,107.235,13.969Z" transform="translate(-1136.149 -469.172)"/><g transform="translate(3.861)"><path class="l" d="M1224.894,478.213,1194.87,493.7l-51.2-6.4-2.224-2.312,2.137-.992h.007l30.156-13.973a51.56,51.56,0,0,1,26.363-1.305,93.685,93.685,0,0,1,21.587,7.767C1223.749,477.52,1224.894,478.213,1224.894,478.213Z" transform="translate(-1141.443 -467.584)"/><g class="n"><path class="j" d="M1224.894,481.515,1194.87,497l-51.2-6.4-2.224-2.312,2.137-.992h.007a58.565,58.565,0,0,1,17.729-.613c12.091,1.524,26.013,6.221,26.013,6.221s3.632,2.611,5.36-.54,9.882-3.15,13.958-4.449c3.924-1.247,10.21-7.183,15.045-8.131C1223.749,480.822,1224.894,481.515,1224.894,481.515Z" transform="translate(-1141.443 -470.885)"/></g><path class="e" d="M1224.894,478.213,1194.87,493.7l-51.2-6.4-2.224-2.312,2.137-.992h.007l30.156-13.973a51.56,51.56,0,0,1,26.363-1.305,93.685,93.685,0,0,1,21.587,7.767C1223.749,477.52,1224.894,478.213,1224.894,478.213Z" transform="translate(-1141.443 -467.584)"/></g><g transform="translate(57.287 7.442)"><path class="l" d="M1300.473,484.965l-2.13,3L1265.3,503.036l-50.6-6.578,3.078-1.59,26.947-13.893a68.824,68.824,0,0,1,21.47-3.187c11.027.044,31.68,6.367,34.05,7.1C1300.393,484.943,1300.473,484.965,1300.473,484.965Z" transform="translate(-1214.703 -477.788)"/><g class="o"><path class="j" d="M1300.473,487.6l-2.13,3L1265.3,505.673l-50.6-6.578,3.078-1.59c6.542-1.561,15.592-3,22.87-1.758a175.92,175.92,0,0,1,24.03,6.031s27-11.479,35.567-14.25C1300.393,487.58,1300.473,487.6,1300.473,487.6Z" transform="translate(-1214.703 -480.425)"/></g><path class="e" d="M1300.473,484.965l-2.13,3L1265.3,503.036l-50.6-6.578,3.078-1.59,26.947-13.893a68.824,68.824,0,0,1,21.47-3.187c11.027.044,31.68,6.367,34.05,7.1C1300.393,484.943,1300.473,484.965,1300.473,484.965Z" transform="translate(-1214.703 -477.788)"/></g><path class="e" d="M1214.7,499.357s7.652-3.079,21.576-3.45,28.4,6.127,28.4,6.127l33.417-13.552" transform="translate(-1157.415 -473.241)"/><path class="e" d="M1226.974,501.954A158.229,158.229,0,0,1,1268.1,507.8l14.017-5.9" transform="translate(-1160.738 -476.875)"/><path class="e" d="M1141.439,490.762s7.983-3.457,27.1-.858,25.434,8.489,25.434,8.489" transform="translate(-1137.581 -473.364)"/><path class="e" d="M1143.376,493.1s8.427-2.131,24.021,0,25.248,6.165,25.248,6.165" transform="translate(-1138.106 -474.235)"/><g class="k" transform="translate(16.47 5.243)"><path class="e" d="M1203.219,492.558s-3.218-.062-2.8-1.238-3.147-1.032-4.249-2.042-2.69-1.181-3.555-1.744,1.3-.649-1.731-1.616-3.8.64-6.828-.438,1.672-1.152-2.693-1.464-2.107.22-6.175,0-3.778.941-4.933,0-11.52,1-11.52,1" transform="translate(-1158.733 -477.206)"/><path class="e" d="M1213.091,488.274l-2.437-1.1c-.32-.144-.682-.339-.742-.685-.037-.211.05-.448-.06-.633s-.37-.22-.589-.23l-2.194-.1a2.792,2.792,0,0,0-2-1.4c-.822-.2-1.684-.226-2.482-.5a10.094,10.094,0,0,1-1.554-.776,24.965,24.965,0,0,0-11.822-3.064l1.019-.758a18.393,18.393,0,0,0-8.361.9,1.273,1.273,0,0,0,.417-.965l-9.392.848" transform="translate(-1162.566 -475.885)"/><path class="e" d="M1222.446,484.673a1.4,1.4,0,0,1-1.465-1.484.855.855,0,0,0-.017-.534c-.149-.255-.526-.191-.812-.263-.756-.19-.794-1.286-1.366-1.817a2.285,2.285,0,0,0-1.2-.456l-5.9-1.038a2.034,2.034,0,0,1-1.079-.416c-.242-.228-.359-.563-.593-.8a2.212,2.212,0,0,0-1.539-.456l-5.677-.213a2.626,2.626,0,0,1-1.212-.241.9.9,0,0,1-.465-1.044,18.9,18.9,0,0,0-7.248-1.1q-4.564-.072-9.128.007" transform="translate(-1165.777 -474.774)"/><path class="e" d="M1236.016,494.567a25.475,25.475,0,0,1,7.084-1.491,1.465,1.465,0,0,1,.716.077,5.634,5.634,0,0,1,.573.428,2.057,2.057,0,0,0,1.092.217l6.246.073c.043.189.085.378.128.567l6.68,0,.14.59,5.8-.064a.77.77,0,0,1,.468.095,1.24,1.24,0,0,1,.29.474c.339.635,1.192.721,1.909.793a12.123,12.123,0,0,1,5.195,1.774" transform="translate(-1179.656 -479.726)"/><path class="e" d="M1247.836,488.8l3.763-.947a.7.7,0,0,1,.466-.007c.181.086.25.306.392.448a1.089,1.089,0,0,0,.833.215,9.642,9.642,0,0,0,3.216-.684,7.225,7.225,0,0,1,1.359-.479,5.892,5.892,0,0,1,2.478.312,22.313,22.313,0,0,0,4.716.691c1.036.038,2.076,0,3.106.107a21.986,21.986,0,0,1,3.281.685l4.328,1.137a23.184,23.184,0,0,1,7.619,3.005" transform="translate(-1182.856 -478.164)"/><path class="e" d="M1255.432,484.242l3.6-.206a8.638,8.638,0,0,1,4.077-1.347,17.2,17.2,0,0,1,2.78.116l3.557.341a29.7,29.7,0,0,0,5.633.182c-.018.489.652.637,1.141.618l2.98-.116a1.3,1.3,0,0,0,.512,1.1,2.488,2.488,0,0,0,.823.362,19.372,19.372,0,0,0,6.912.733,1.723,1.723,0,0,1,.913.09,3.916,3.916,0,0,1,.558.448,3.248,3.248,0,0,0,1.268.461,10.458,10.458,0,0,1,4.117,1.994l-.147-.96" transform="translate(-1184.912 -476.911)"/><path class="e" d="M1307.373,485.54c-1.114.651-2.31-.624-3.452-1.227a9.46,9.46,0,0,0-3.674-.634c-2.854-.246-5.539-1.419-8.336-2.044a44,44,0,0,0-6.584-.79l-6.944-.481" transform="translate(-1191.125 -476.287)"/></g></g><g transform="translate(36.498 109.937)"><g transform="translate(18.273 4.65)"><path class="c" d="M1215.929,429.529c-3.713,12.891-20.944,18.886-20.944,18.886s-23.282,8.847-24.808-12.931c0,0,1.157-10.639,8.107-14.6,0,0,5.042-10.021,12.66-14.307" transform="translate(-1170.177 -406.578)"/><g class="p"><path class="j" d="M1211.174,443.655c-6.41,7.183-16.175,10.582-16.175,10.582s-22.928,8.715-24.766-12.441c1.4-2.633,2.319-4.354,2.319-4.354s1.378-9.05,8.766-9.342,13.543,2.115,14.892,11.231c1.094,7.4-1.123,9.9-1.984,10.574,1.466-1.021,7.205-5.907,3.325-17.7a4.221,4.221,0,0,1,5.112,2c1.787,3.158-.8,14.593-.882,14.987A75.42,75.42,0,0,0,1211.174,443.655Z" transform="translate(-1170.192 -412.398)"/></g><path class="e" d="M1215.929,429.529c-3.713,12.891-20.944,18.886-20.944,18.886s-23.282,8.847-24.808-12.931c0,0,1.157-10.639,8.107-14.6,0,0,5.042-10.021,12.66-14.307" transform="translate(-1170.177 -406.578)"/></g><path class="e" d="M1216.961,411.94s13.33,4.572,9.406,19.835" transform="translate(-1164.569 -403.379)"/><g transform="translate(7.221 21.418)"><path class="b" d="M1190.849,442.894a8.993,8.993,0,0,1-6.1,8.128l-3.384,2.288-8.383,4.607,1.2,2.83c6.315,0,6.968,1.851,6.315,3.81s-9.362,2.94-10.887,3.266-8.71-2.068-10.669-2.83-2.571-4.654-2.571-4.654l-1.348-15.922a9.226,9.226,0,0,1,3.849-5.179s1.7-3.312,3.554-4.074,7.451.589,7.451.589,4.821-7.407,12.046-6.008C1188.985,431.114,1191.184,438.935,1190.849,442.894Z" transform="translate(-1155.021 -429.57)"/><path class="e" d="M1175.389,438.049a52.651,52.651,0,0,1,5.613,1.588" transform="translate(-1160.535 -431.865)"/></g><path class="a" d="M1176.263,456.561l3.969,4.086-1.4-5.521-28.512-50.968-2.565,1.435Z" transform="translate(-1145.832 -401.273)"/><path class="a" d="M1148.829,408.838l-3.709-6.631s.206-.746,1.489-1.464a3.035,3.035,0,0,1,2.052-.516l7.154,12.789a3.6,3.6,0,0,0-2.051.517,2.588,2.588,0,0,0-1.268,1.34l5.475,9.785-.949-.1-8.289-14.816Z" transform="translate(-1145.12 -400.202)"/><g transform="translate(4.986 32.201)"><path class="l" d="M1161.268,447.876s5.008,2.94,6.532,5.225c0,0,7.4,4.212,7.4,7.4,0,2.776-1.852,2.9-1.852,2.9s2.5,1.51,2.94,3.441-1.089,3.582-1.524,3.41-15.132-3.983-18.616-5.615-5.879-3.7-2.722-13.173a12.6,12.6,0,0,1,.762-3.048,26.09,26.09,0,0,1,3.375-4.064" transform="translate(-1151.957 -444.356)"/><path class="e" d="M1161.268,447.876s5.008,2.94,6.532,5.225c0,0,7.4,4.212,7.4,7.4,0,2.776-1.852,2.9-1.852,2.9s2.5,1.51,2.94,3.441-1.089,3.582-1.524,3.41-15.132-3.983-18.616-5.615-5.879-3.7-2.722-13.173a12.6,12.6,0,0,1,.762-3.048,26.09,26.09,0,0,1,3.375-4.064" transform="translate(-1151.957 -444.356)"/><path class="e" d="M1156.066,457.416c.545,1.725,6.879,3.25,9.209,4.991s9.189,4.534,9.189,4.534" transform="translate(-1153.07 -447.892)"/></g><g transform="translate(28.233 32.201)"><path class="l" d="M1190.473,444.356s3.048,1.162,4.209,3.484,1.307,6.532,0,7.693-7.258,6.677-8.128,7.693-5.661-2.322,0-9.435c0,0-.145-3.919.871-5.226" transform="translate(-1183.833 -444.356)"/><path class="e" d="M1190.473,444.356s3.048,1.162,4.209,3.484,1.307,6.532,0,7.693-7.258,6.677-8.128,7.693-5.661-2.322,0-9.435c0,0-.145-3.919.871-5.226" transform="translate(-1183.833 -444.356)"/></g><path class="e" d="M1199.621,427.122s6.2,1.435,7.165,10.065-1.736,13.9-8.133,16.79" transform="translate(-1159.613 -407.49)"/><g class="k" transform="translate(37.604 7.311)"><path class="e" d="M1202.515,414.252c1.578-1.817,3.641-3.74,6.141-4.025" transform="translate(-1198.263 -410.227)"/><path class="e" d="M1196.684,423.076a34.684,34.684,0,0,1,2.171-3.607" transform="translate(-1196.684 -412.729)"/><path class="e" d="M1210.936,432.923s9.369-1.278,12.831-5.222" transform="translate(-1200.542 -414.958)"/><path class="e" d="M1221.392,448.943a12.742,12.742,0,0,0,4.484-3.409" transform="translate(-1203.373 -419.786)"/><path class="e" d="M1210.936,452.917a26.748,26.748,0,0,0,4.546-1.039" transform="translate(-1200.542 -421.503)"/></g></g><g transform="translate(147.356 97.824)"><g transform="translate(71.481)"><path class="c" d="M1402.252,383.592c15.348.871,46.042,32.021,52.973,39.714s18.257,19.2,21.907,28.3c5.569,13.89-8.417,26.664-22.279,25.931s-42.7-30.581-42.7-30.581-22-20.5-15.952-39.022" transform="translate(-1395.148 -383.592)"/><g class="q"><path class="j" d="M1444.828,450.519s-22.928,7.847-33.175,8.6c-1.116-1.24-2.428-2.786-3.792-4.58-1.743-4.208-4.806-12.894-.737-13.645,5.382-.985,4.259,8.379,7.307,12.864,0,0,5.193-12.368,12.121-12.339s4.033,8.5,4.033,8.5S1442.523,446.318,1444.828,450.519Z" transform="translate(-1397.844 -399.085)"/><path class="j" d="M1473.916,498.591a21.886,21.886,0,0,1-8.343-2.706c11.282-1.531,22.068-4.135,25.24-9.685,3.223-5.637,1.437-16.759-1.6-24.832a50.391,50.391,0,0,1,6.986,11.289C1501.767,486.551,1487.779,499.328,1473.916,498.591Z" transform="translate(-1414.214 -404.648)"/></g><path class="e" d="M1402.252,383.592c15.348.871,46.042,32.021,52.973,39.714s18.257,19.2,21.907,28.3c5.569,13.89-8.417,26.664-22.279,25.931s-42.7-30.581-42.7-30.581-22-20.5-15.952-39.022" transform="translate(-1395.148 -383.592)"/></g><path class="e" d="M1382.487,447.853s7.1,10.642,23.352,13.514" transform="translate(-1320.24 -400.989)"/><g transform="translate(0 60.381)"><path class="b" d="M1361.072,473.4l-12.623.168s-17.155-5.529-19.4-6.984-16.8,5.793-18.561,6.559a13.765,13.765,0,0,0-3.233,2.078,12.438,12.438,0,0,1-2.788,2.011c-1.292.575-3.391,3.986-3.391,3.986s-5.545,1.312-3.481,2.91,8.859.672,11.447-.152,7.426-.1,7.426-.1,7.172,10.627,26.069,6.663l18.787,1.7" transform="translate(-1297.132 -466.388)"/><path class="e" d="M1302.537,482.144s4.79-1.826,7.107-2.847,8.869-1.726,8.869-1.726a3.744,3.744,0,0,1,2.308-4.363c3.065-1.154,3.53-3.389,3.53-3.389" transform="translate(-1298.595 -467.317)"/><path class="e" d="M1311.009,477.7s6.161-2.117,7.646-2.137" transform="translate(-1300.889 -468.873)"/></g><path class="j" d="M1408.645,465.5c-.007,0-.015-.007-.022-.007a5.747,5.747,0,0,1,1.473.263,2.217,2.217,0,0,0,.314.087A5.434,5.434,0,0,1,1408.645,465.5Z" transform="translate(-1327.316 -405.764)"/><path class="j" d="M1449.334,454.116s-16.328,5.586-27.581,7.789c7.388-1.9,17.874-5.914,27.581-7.8Z" transform="translate(-1330.87 -402.683)"/><g transform="translate(52.714 50.838)"><path class="c" d="M1438.721,453.3c-15.2,2.058-33.646,11.014-39.241,9.147s-18.854,6.342-18.854,6.342l-7.8.1s-5.771,12.786-2.307,22.048l8.1.8s-.593,5.125,20.592,6.488,60.484,2.978,68.14-10.817" transform="translate(-1369.415 -453.303)"/><g class="r"><path class="j" d="M1468.526,495.2c-7.657,13.8-46.958,12.186-68.143,10.822s-20.587-6.491-20.587-6.491l-6.031-.591c-.168-4.8.365-13.805,6.352-16.868,0,0-1.006,13.477,0,15.38s28.719,7.285,43.713,5.841c14.885-1.422,36.967-3.048,42.006-11.3Z" transform="translate(-1370.586 -461.091)"/></g><path class="e" d="M1438.721,453.3c-15.2,2.058-33.646,11.014-39.241,9.147s-18.854,6.342-18.854,6.342l-7.8.1s-5.771,12.786-2.307,22.048l8.1.8s-.593,5.125,20.592,6.488,60.484,2.978,68.14-10.817" transform="translate(-1369.415 -453.303)"/></g><path class="e" d="M1423.861,460.394c.419-.218,4.287-9.827,8.342-10.685" transform="translate(-1331.441 -401.492)"/><path class="e" d="M1381.635,499.528c-.009-.946-2.641-13.284.324-17.459" transform="translate(-1319.715 -410.252)"/><path class="e" d="M1403.124,406.059s3.706-10.195,13.586-11.227" transform="translate(-1325.827 -386.635)"/><g class="k" transform="translate(67.221 11.011)"><path class="e" d="M1427.549,430.217c.331,1.227-.4,2.685,1.79,3.414,5.1.729,7.293,4.376,10.21,8.022a11.947,11.947,0,0,1,4.039,2.779" transform="translate(-1399.66 -407.225)"/><path class="e" d="M1411.073,408.448a57.264,57.264,0,0,1,10.491,13.064" transform="translate(-1395.2 -401.332)"/><path class="e" d="M1396.836,479.645c-1.7.551-3.385,1.132-5.053,1.766" transform="translate(-1389.977 -420.607)"/><path class="e" d="M1454.754,462.29c-15.383,7.737-32.157,7.008-48.93,10.654a13.769,13.769,0,0,0-3.175,1.108" transform="translate(-1392.919 -415.908)"/><path class="e" d="M1423.861,398.69c6.667,3.069,11.772,8.9,16.877,14.009,5.1,6.563,9.481,13.856,17.5,17.5,2.188,1.459,4.376,3.646,4.376,7.293.729,1.459,3.646,2.917.878,5.824" transform="translate(-1398.662 -398.69)"/><path class="e" d="M1434.55,488.831c-14.5,2.237-29.085,6.613-44.005,4.571" transform="translate(-1389.642 -423.094)"/><path class="e" d="M1484.912,464.8c2.272,11-12.109,13.147-19.754,14.827q-5.341,1.174-10.715,2.2" transform="translate(-1406.941 -416.587)"/><path class="e" d="M1397.451,508.244a33.382,33.382,0,0,1-8.144-2.235" transform="translate(-1389.307 -427.744)"/><path class="e" d="M1478.63,485.489c-.177,6.862-6.74,10.509-11.845,11.967-20.42,7.293-41.569,6.563-62.543,5.622" transform="translate(-1393.35 -422.189)"/><path class="e" d="M1409.024,438.013c2.632,2.749,6.062,4.125,7.329,7.978.774,2.354,1.512,5.236,4.332,5.894" transform="translate(-1394.645 -409.336)"/><path class="e" d="M1400.223,423.218a34.665,34.665,0,0,0,4.505,8.491" transform="translate(-1392.262 -405.33)"/></g></g><path class="e" d="M1481.6,447.853" transform="translate(-1199.716 -303.165)"/><g transform="translate(149.822 76.922)"><path class="b" d="M1314.187,390.832c-.087-.117-.189-.233-.292-.35-3.056-3.581-10.472-6.17-12.726-6.892-.416-.131-.656-.2-.656-.2s5.156-38.367,29.667-26S1317.556,395.266,1314.187,390.832Z" transform="translate(-1300.513 -354.931)"/><path class="f" d="M1314.139,395.519c-3.056-3.581-10.472-6.17-12.726-6.892.43-1.16.817-1.94.817-1.94l21.82-13.149S1324.648,388.737,1314.139,395.519Z" transform="translate(-1300.757 -359.969)"/></g><g transform="translate(104.82 17.238)"><path class="b" d="M1318.311,324.152c-.58-32.979-22.96-56.519-52.364-39.573-24.026,13.847-21.449,40.195-8.211,53.715,7.834,8,1.569,15.608,13.836,25.966,4.168,3.52,14.753,7.436,18.435,6.244,12.965-4.2,23.595-18.548,21.69-24.428" transform="translate(-1241.236 -274.672)"/><path class="e" d="M1277.635,345.758s4.92-6.311,14.59-4.725" transform="translate(-1249.317 -291.415)"/><path class="e" d="M1261.416,351.946s-4.933-1.734-5.386.2" transform="translate(-1243.468 -294.245)"/><ellipse class="f" cx="1.235" cy="2.058" rx="1.235" ry="2.058" transform="translate(36.968 57.698) rotate(-35.817)"/><path class="f" d="M1268.718,359.952c.666.922.756,1.992.2,2.391s-1.541-.025-2.206-.946-.756-1.993-.2-2.392S1268.053,359.03,1268.718,359.952Z" transform="translate(-1246.208 -296.309)"/><path class="b" d="M1270.314,358.3c2.315,1.946,5.163,4.843,2.581,10.4s3.783,6.189,7.241,3.833" transform="translate(-1247.335 -296.158)"/><path class="b" d="M1286.467,374.879s2.248-2.076-1.383-4.27" transform="translate(-1251.334 -299.491)"/><path class="b" d="M1284.464,383.935c.661,1.1,4.05-.315,5.039-.535a28.1,28.1,0,0,1,2.656-1.6c.971-.459,3.876-1.955,4.007-3.654" transform="translate(-1251.166 -301.532)"/><path class="b" d="M1287.638,387.075c3.048,2.97,8.34-.279,9.388-4.692" transform="translate(-1252.025 -302.679)"/><path class="f" d="M1275.869,274.01c-21.137,3.922-32.661,18.127-32.9,30.869,0,0-8.014,15.016-1.806,25.915,0,0,.308-.378.813-.89a37.9,37.9,0,0,1-.447-5.493,27.389,27.389,0,0,1,.542-5.491,17.649,17.649,0,0,1,2.012-5.085A17.419,17.419,0,0,0,1242.5,319a26.679,26.679,0,0,0-.1,5.378,35.313,35.313,0,0,0,.691,4.5c1.163-.963,2.69-1.9,4.121-1.746a11.657,11.657,0,0,0,1.968.035c-.3-1.494-.549-3-.718-4.508a40.405,40.405,0,0,1-.2-5.259,25.285,25.285,0,0,1,.765-5.164,24.944,24.944,0,0,0-.107,5.149,39.6,39.6,0,0,0,.84,5.052c.366,1.5.809,2.981,1.307,4.44a12.215,12.215,0,0,0,4.649-2.256,5.184,5.184,0,0,1,1.241-.723c-.113-.731-.216-1.464-.292-2.2a37.745,37.745,0,0,1-.213-6.215,21.256,21.256,0,0,1,1.171-6.031,20.714,20.714,0,0,0-.074,6,36.086,36.086,0,0,0,1.269,5.817c.245.84.523,1.671.819,2.5a6.328,6.328,0,0,0,2.679.185c1.594-.346,3.221-.227,4.737-.847-.182-.519-.375-1.034-.54-1.558a39.051,39.051,0,0,1-1.279-5.546,27,27,0,0,1-.2-5.654,26.738,26.738,0,0,0,.632,5.575,38.363,38.363,0,0,0,1.675,5.332c.188.466.4.92.6,1.381a5.488,5.488,0,0,0,.985-.824c2-2.108,4.94-3.548,6.691-2.654a9.749,9.749,0,0,0,1.141.49c-.062-.206-.134-.409-.194-.615a56.264,56.264,0,0,1-1.34-5.871,35.217,35.217,0,0,1-.438-5.973,35.025,35.025,0,0,0,1.082,5.832,55.56,55.56,0,0,0,1.941,5.579c.207.495.432.979.65,1.469,1.393.178,2.727-.133,3.139-1.653a1.692,1.692,0,0,1,.6-.949c-.107-.276-.214-.553-.318-.833a42.371,42.371,0,0,1-1.342-4.364,36.9,36.9,0,0,1-.856-4.454,34.826,34.826,0,0,1-.3-4.489,34.274,34.274,0,0,0,.946,4.356,35.946,35.946,0,0,0,1.462,4.174,40.612,40.612,0,0,0,1.893,3.965c.292.538.6,1.076.923,1.6a8.054,8.054,0,0,1,1.382.657s-3.757-9.346-3.021-18.353c0,0,4.524,19.237,18.241,26.242l2.874,5.117s4.892-4.013,8.745-.389,5.224,1.162,5.224,1.162,6.07-11.848-1.211-34.333S1292.741,270.88,1275.869,274.01Z" transform="translate(-1238.805 -273.09)"/><path class="b" d="M1334.08,351.346s-.276,1.925,2.021,2.079,4.245-4.624,5.395-13.336c1.22-9.25-1.613-14.809-7.112-14.861s-7,5.782-7.463,9.154a24.656,24.656,0,0,0,.349,8.592" transform="translate(-1262.601 -287.206)"/><path class="a" d="M1341.182,358.9a1.269,1.269,0,1,1-1.269-1.269A1.269,1.269,0,0,1,1341.182,358.9Z" transform="translate(-1265.834 -295.978)"/><path class="b" d="M1293.522,379.894s-3.342.845-4.177,1.123a5.071,5.071,0,0,0-1.763,1.574s-2.046.049-2.5.933" transform="translate(-1251.334 -302.005)"/></g><g class="g" transform="translate(106.271 32.616)"><path class="h" d="M1284.054,300.844s-4.1,8.511-2.331,20.772" transform="translate(-1251.755 -295.982)"/><path class="h" d="M1272.576,300.844a30.733,30.733,0,0,0-3.663,26.8" transform="translate(-1247.996 -295.982)"/><path class="h" d="M1255.624,331.144c.141-.7-4.187-17.293,3.458-25.948" transform="translate(-1244.512 -297.16)"/><path class="h" d="M1240.794,329.471s2.146-16.118,10.017-21.894" transform="translate(-1240.794 -297.805)"/><path class="h" d="M1301.413,300.844s9.326,15.723,21.579,14.858" transform="translate(-1257.205 -295.982)"/><path class="h" d="M1307.474,294.177s11.687,10.488,21.559,8.036" transform="translate(-1258.846 -294.177)"/></g></g></g></svg>