<svg id="lock" xmlns="http://www.w3.org/2000/svg" width="11.896" height="15.861" viewBox="0 0 11.896 15.861">
  <path id="Path_19471" data-name="Path 19471" d="M14.409,6.443V4.461a4.461,4.461,0,0,0-8.922,0V6.443A1.487,1.487,0,0,0,4,7.93V11.4a4.461,4.461,0,0,0,4.461,4.461h2.974A4.461,4.461,0,0,0,15.9,11.4V7.93A1.487,1.487,0,0,0,14.409,6.443ZM6.478,4.461a3.47,3.47,0,1,1,6.939,0V6.443h-.991V4.462a2.478,2.478,0,1,0-4.957,0V6.443H6.478Zm5.452,0h0V6.443H7.965V4.462h0a1.983,1.983,0,0,1,3.965,0ZM14.9,9.417V11.4a3.474,3.474,0,0,1-3.47,3.47H8.461a3.474,3.474,0,0,1-3.47-3.47V7.93a.5.5,0,0,1,.5-.5h8.922a.5.5,0,0,1,.5.5Z" transform="translate(-4)" fill="#00b1b2"/>
  <path id="Path_19472" data-name="Path 19472" d="M14.991,19a.991.991,0,0,0-.991.991,4.98,4.98,0,0,0,.331,1.324c.135.368.3.657.661.657.388,0,.526-.286.661-.652a4.929,4.929,0,0,0,.33-1.329A.991.991,0,0,0,14.991,19Z" transform="translate(-9.043 -9.583)" fill="#00b1b2"/>
</svg>
