<svg xmlns="http://www.w3.org/2000/svg" width="24.146" height="13.536" viewBox="0 0 24.146 13.536">
  <g id="Group_21423" data-name="Group 21423" transform="translate(-363.5 -261.313)">
    <path id="Path_19479" data-name="Path 19479" d="M29.233,23.893H20.88a.943.943,0,0,1-.672-.287l-6.481-6.337a.217.217,0,0,1,0-.24l6.48-6.384a.948.948,0,0,1,.672-.288h8.3a.158.158,0,0,1,.1.288c-.769.768-2.784,2.976-2.976,5.664a.154.154,0,0,1-.144.144H22.8c-.048,0-.1-.048-.144-.1a1.4,1.4,0,0,0-1.152-.672,1.759,1.759,0,0,0-.528.1,1.364,1.364,0,0,0-.864,1.3A1.393,1.393,0,0,0,21.5,18.469a1.356,1.356,0,0,0,1.2-.719c.048-.048.1-.1.144-.1h3.313a.127.127,0,0,1,.144.143c.144,2.545,2.256,4.945,3.024,5.76C29.425,23.7,29.377,23.893,29.233,23.893Z" transform="translate(358.268 250.956)" fill="#aedbd0"/>
    <path id="Path_19480" data-name="Path 19480" d="M0,16.316H6.672c.048,0,.1,0,.1-.047l5.376-5.377c.144-.144,0-.336-.192-.24Z" transform="translate(363.5 250.854)" fill="#e56b87"/>
    <path id="Path_19481" data-name="Path 19481" d="M0,22.786H6.672c.048,0,.1,0,.1.048l5.376,5.376c.144.143,0,.336-.192.24Z" transform="translate(363.5 246.207)" fill="#00b1b2"/>
  </g>
</svg>
