<svg xmlns="http://www.w3.org/2000/svg" width="20.681" height="13.572" viewBox="0 0 20.681 13.572">
  <path id="mail" d="M18.1,5H2.585A2.586,2.586,0,0,0,0,7.585v8.4a2.585,2.585,0,0,0,2.585,2.585H18.1a2.585,2.585,0,0,0,2.585-2.585v-8.4A2.586,2.586,0,0,0,18.1,5ZM1.293,8.393l4.523,3.393L1.293,15.179Zm18.1,7.594A1.294,1.294,0,0,1,18.1,17.279H2.585a1.293,1.293,0,0,1-1.293-1.293l5.062-3.8,2.823,2.118a1.938,1.938,0,0,0,2.326,0l2.824-2.118,5.062,3.8Zm0-.808-4.524-3.393,4.524-3.393Zm-8.273-1.388a1.292,1.292,0,0,1-1.55,0l-2.672-2-.538-.4-5.062-3.8h0A1.294,1.294,0,0,1,2.585,6.293H18.1a1.294,1.294,0,0,1,1.293,1.293Z" transform="translate(0 -5)" fill="#cacdd3"/>
</svg>
