<svg xmlns="http://www.w3.org/2000/svg" width="17.908" height="23.254" viewBox="0 0 17.908 23.254"><defs><style>.a{fill:#192956;}</style></defs><g transform="translate(0)"><path class="a" d="M59.98,23.254H71.26a3.28,3.28,0,0,0,3.314-3.274V12.656a3.242,3.242,0,0,0-2.406-3.167V5.974A5.926,5.926,0,0,0,66.288,0H64.952A5.972,5.972,0,0,0,59,5.96a.8.8,0,0,0,.8.8.816.816,0,0,0,.8-.815A4.352,4.352,0,0,1,64.952,1.6h1.336a4.318,4.318,0,0,1,4.277,4.37V9.355H59.98a3.314,3.314,0,0,0-3.314,3.314v7.324A3.277,3.277,0,0,0,59.98,23.254Zm12.99-3.314A1.705,1.705,0,0,1,71.26,21.65H59.98a1.705,1.705,0,0,1-1.711-1.711v-7.27a1.705,1.705,0,0,1,1.711-1.711H71.26a1.705,1.705,0,0,1,1.711,1.711v7.27Z" transform="translate(-56.666)"/><path class="a" d="M224.635,332.81a.8.8,0,0,0,.8-.8v-2.539a.8.8,0,1,0-1.6,0v2.539A.8.8,0,0,0,224.635,332.81Z" transform="translate(-215.948 -313.164)"/></g></svg>