<svg xmlns="http://www.w3.org/2000/svg" width="13.295" height="13.295" viewBox="0 0 13.295 13.295">
  <g id="settings" transform="translate(0 -0.002)">
    <path id="Path_19465" data-name="Path 19465" d="M12.626,5.269l-1.273-.255a5.026,5.026,0,0,0-.223-.536L11.852,3.4a.831.831,0,0,0-.1-1.048l-.8-.8a.83.83,0,0,0-1.048-.1l-1.082.721a5.023,5.023,0,0,0-.536-.223L8.027.67A.83.83,0,0,0,7.212,0H6.082A.831.831,0,0,0,5.267.67L5.012,1.943a5.024,5.024,0,0,0-.536.223L3.4,1.445a.831.831,0,0,0-1.049.1l-.8.8a.831.831,0,0,0-.1,1.048l.721,1.082a4.981,4.981,0,0,0-.223.536L.668,5.269A.831.831,0,0,0,0,6.084v1.13a.831.831,0,0,0,.668.815l1.273.256a5.024,5.024,0,0,0,.223.536L1.444,9.9a.831.831,0,0,0,.1,1.048l.8.8a.83.83,0,0,0,1.048.1l1.082-.721a4.9,4.9,0,0,0,.536.223l.255,1.273a.831.831,0,0,0,.815.668h1.13a.831.831,0,0,0,.815-.668l.256-1.273a5.026,5.026,0,0,0,.536-.223l1.082.721a.83.83,0,0,0,1.048-.1l.8-.8a.831.831,0,0,0,.1-1.048L11.13,8.82a4.941,4.941,0,0,0,.223-.536l1.273-.255a.831.831,0,0,0,.668-.815V6.084A.831.831,0,0,0,12.626,5.269Zm-1.436,2.2a.83.83,0,0,0-.622.542,4.219,4.219,0,0,1-.186.446.829.829,0,0,0,.056.823l.721,1.082-.8.8-1.082-.721a.832.832,0,0,0-.823-.057,4.2,4.2,0,0,1-.447.187.83.83,0,0,0-.541.622l-.256,1.274H6.082l-.255-1.274a.83.83,0,0,0-.542-.622,4.226,4.226,0,0,1-.447-.186.829.829,0,0,0-.823.056l-1.082.721-.8-.8.721-1.082a.832.832,0,0,0,.057-.823,4.2,4.2,0,0,1-.186-.447.831.831,0,0,0-.622-.541L.832,7.214V6.084L2.1,5.829a.831.831,0,0,0,.622-.542,4.14,4.14,0,0,1,.186-.447.829.829,0,0,0-.057-.823l-.72-1.082.8-.8,1.082.721a.832.832,0,0,0,.823.057,4.192,4.192,0,0,1,.447-.186.831.831,0,0,0,.542-.622L6.082.833h1.13l.255,1.274a.83.83,0,0,0,.542.622,4.133,4.133,0,0,1,.446.186.831.831,0,0,0,.823-.057l1.082-.721.8.8-.721,1.082a.833.833,0,0,0-.057.823,4.194,4.194,0,0,1,.187.447.83.83,0,0,0,.622.542l1.273.255v1.13Z" transform="translate(0 0)" fill="#00b1b2"/>
    <path id="Path_19466" data-name="Path 19466" d="M11.908,9a2.908,2.908,0,1,0,2.908,2.908A2.909,2.909,0,0,0,11.908,9Zm0,5.453a2.545,2.545,0,1,1,2.545-2.545A2.545,2.545,0,0,1,11.908,14.454Z" transform="translate(-5.261 -5.26)" fill="#00b1b2"/>
    <path id="Path_19467" data-name="Path 19467" d="M13.662,12a1.662,1.662,0,1,0,1.662,1.662A1.661,1.661,0,0,0,13.662,12Zm0,2.909a1.246,1.246,0,1,1,1.246-1.246A1.247,1.247,0,0,1,13.662,14.91Z" transform="translate(-7.014 -7.014)" fill="#00b1b2"/>
  </g>
</svg>
