<svg xmlns="http://www.w3.org/2000/svg" width="131.451" height="141.544" viewBox="0 0 131.451 141.544"><defs><style>.a{fill:rgba(185,175,175,0);}.b{fill:rgba(26,179,179,0.05);}</style></defs><path class="a" d="M0,0H131.45V141.544H0Z"/><path class="b" d="M104.064,91.935h-71.2C14.743,91.935,0,76.469,0,57.458A35.35,35.35,0,0,1,8.469,34.367,32.21,32.21,0,0,1,29.3,23.214C36.408,8.9,50.366,0,65.723,0A39.916,39.916,0,0,1,91.932,9.919,43.661,43.661,0,0,1,105.981,34.7a26.877,26.877,0,0,1,18.075,8.95A29.138,29.138,0,0,1,131.451,63.2C131.451,79.046,119.165,91.935,104.064,91.935ZM65.723,22.981h0L38.341,51.713H54.77V74.694H76.681V51.713h16.43L65.723,22.981Z" transform="translate(0 24.546)"/></svg>