<svg xmlns="http://www.w3.org/2000/svg" width="66.055" height="66.055" viewBox="0 0 66.055 66.055"><defs><style>.a{fill:#a6dee0;}.b,.c{stroke:none;}.c{fill:#fff;}</style></defs><g class="a"><path class="b" d="M 33.0275993347168 65.05519866943359 C 28.70345878601074 65.05519866943359 24.50919914245605 64.20852661132812 20.56131935119629 62.53871917724609 C 16.74761009216309 60.9256591796875 13.32234954833984 58.6162109375 10.38066959381104 55.67453002929688 C 7.438989162445068 52.73284912109375 5.129539489746094 49.30759048461914 3.516479253768921 45.49388122558594 C 1.846669316291809 41.54599761962891 0.9999993443489075 37.35173797607422 0.9999993443489075 33.0275993347168 C 0.9999993443489075 28.70345878601074 1.846669316291809 24.50919914245605 3.516479253768921 20.56131935119629 C 5.129539489746094 16.74761009216309 7.438989162445068 13.32234954833984 10.38066959381104 10.38066959381104 C 13.32234954833984 7.438989162445068 16.74761009216309 5.129539489746094 20.56131935119629 3.516479253768921 C 24.50919914245605 1.846669316291809 28.70345878601074 0.9999993443489075 33.0275993347168 0.9999993443489075 C 37.35173797607422 0.9999993443489075 41.54599761962891 1.846669316291809 45.49388122558594 3.516479253768921 C 49.30759048461914 5.129539489746094 52.73284912109375 7.438989162445068 55.67453002929688 10.38066959381104 C 58.6162109375 13.32234954833984 60.9256591796875 16.74761009216309 62.53871917724609 20.56131935119629 C 64.20852661132812 24.50919914245605 65.05519866943359 28.70345878601074 65.05519866943359 33.0275993347168 C 65.05519866943359 37.35173797607422 64.20852661132812 41.54599761962891 62.53871917724609 45.49388122558594 C 60.9256591796875 49.30759048461914 58.6162109375 52.73284912109375 55.67453002929688 55.67453002929688 C 52.73284912109375 58.6162109375 49.30759048461914 60.9256591796875 45.49388122558594 62.53871917724609 C 41.54599761962891 64.20852661132812 37.35173797607422 65.05519866943359 33.0275993347168 65.05519866943359 Z"/><path class="c" d="M 33.0275993347168 2 C 28.83802032470703 2 24.77481842041016 2.820087432861328 20.95087051391602 4.437480926513672 C 17.25637054443359 6.000129699707031 13.93793869018555 8.23760986328125 11.0877685546875 11.0877685546875 C 8.23760986328125 13.93793869018555 6.000129699707031 17.25637054443359 4.437480926513672 20.95087051391602 C 2.820087432861328 24.77481842041016 2 28.83802032470703 2 33.0275993347168 C 2 37.21717834472656 2.820087432861328 41.28038024902344 4.437480926513672 45.10431671142578 C 6.000129699707031 48.798828125 8.23760986328125 52.11725997924805 11.0877685546875 54.9674186706543 C 13.93793869018555 57.81758880615234 17.25637054443359 60.05506896972656 20.95087051391602 61.61771774291992 C 24.77481842041016 63.235107421875 28.83802032470703 64.05519866943359 33.0275993347168 64.05519866943359 C 37.21717834472656 64.05519866943359 41.28036880493164 63.235107421875 45.10431671142578 61.61771774291992 C 48.798828125 60.05506896972656 52.11725997924805 57.81758880615234 54.9674186706543 54.9674186706543 C 57.81758880615234 52.11725997924805 60.05506896972656 48.798828125 61.61771774291992 45.10431671142578 C 63.235107421875 41.28036880493164 64.05519866943359 37.21717834472656 64.05519866943359 33.0275993347168 C 64.05519866943359 28.83802032470703 63.235107421875 24.77481842041016 61.61771774291992 20.95087051391602 C 60.05506896972656 17.25637054443359 57.81758880615234 13.93793869018555 54.9674186706543 11.0877685546875 C 52.11725997924805 8.23760986328125 48.798828125 6.000129699707031 45.10431671142578 4.437480926513672 C 41.28038024902344 2.820087432861328 37.21717834472656 2 33.0275993347168 2 M 33.0275993347168 0 C 51.26823043823242 0 66.05519866943359 14.78696060180664 66.05519866943359 33.0275993347168 C 66.05519866943359 51.26823043823242 51.26823043823242 66.05519866943359 33.0275993347168 66.05519866943359 C 14.78696060180664 66.05519866943359 0 51.26823043823242 0 33.0275993347168 C 0 14.78696060180664 14.78696060180664 0 33.0275993347168 0 Z"/></g></svg>