<svg xmlns="http://www.w3.org/2000/svg" width="15.008" height="15.008" viewBox="0 0 15.008 15.008">
  <path id="usericon" d="M14.591,13.289a13.712,13.712,0,0,0-4.349-1.735,10.642,10.642,0,0,0,1.787-3.831A8.05,8.05,0,0,0,10.837,1.6,4.1,4.1,0,0,0,7.5,0,4.1,4.1,0,0,0,4.173,1.6,8.051,8.051,0,0,0,2.98,7.723a10.634,10.634,0,0,0,1.787,3.831A13.7,13.7,0,0,0,.419,13.289a.938.938,0,0,0,.52,1.719H14.07a.938.938,0,0,0,.521-1.718ZM9.506,10.974l-.153.194a2.253,2.253,0,0,1-3.7,0L5.5,10.974A8.017,8.017,0,0,1,3.829,5.041C4.084,3.034,5.234.938,7.5.938s3.42,2.1,3.676,4.1A8.016,8.016,0,0,1,9.506,10.974ZM.938,14.07a12.759,12.759,0,0,1,4.027-1.6L6.13,12.22a2.482,2.482,0,0,0,1.374.443,2.481,2.481,0,0,0,1.374-.443l1.165.252a12.8,12.8,0,0,1,4.027,1.6Z" transform="translate(-0.001)" fill="#00b1b2"/>
</svg>
