<svg id="photography-frame" xmlns="http://www.w3.org/2000/svg" width="21.917" height="18.443" viewBox="0 0 21.917 18.443">
  <g id="Group_37" data-name="Group 37" transform="translate(0 0)">
    <path id="Path_64" data-name="Path 64" d="M21.917,37.635a.8.8,0,0,0-.8-.8H.8a.8.8,0,0,0-.8.8V54.474a.8.8,0,0,0,.8.8H21.115a.8.8,0,0,0,.8-.8Zm-1.6.8V48.7l-4.7-3.3a.787.787,0,0,0-1,.08l-2.446,2.352-5.078-4.9a.8.8,0,0,0-1.189.08L1.617,48.5V38.437ZM1.6,53.672V51.106l5-6.4,5,4.825a.808.808,0,0,0,1.109,0L15.222,47.1l5.092,3.568v3.007Z" transform="translate(0 -36.833)" fill="#192956"/>
    <path id="Path_65" data-name="Path 65" d="M242.666,137.4a1.55,1.55,0,1,0-1.55-1.55A1.551,1.551,0,0,0,242.666,137.4Z" transform="translate(-229.743 -129.703)" fill="#192956"/>
  </g>
</svg>
