<svg xmlns="http://www.w3.org/2000/svg" width="19.026" height="13.349" viewBox="0 0 19.026 13.349"><defs><style>.a{fill:#192956;}</style></defs><path class="a" d="M20.118,16.442H12.49a.953.953,0,0,0,0,1.907h7.628a.953.953,0,0,0,0-1.907Zm0-3.814H12.49a.953.953,0,1,0,0,1.907h7.628a.953.953,0,0,0,0-1.907ZM12.49,6.907h7.628a.9.9,0,0,0,.953-.953A.9.9,0,0,0,20.118,5H12.49a.9.9,0,0,0-.953.953A.9.9,0,0,0,12.49,6.907Zm7.628,1.907H12.49a.9.9,0,0,0-.953.953.9.9,0,0,0,.953.953h7.628a.9.9,0,0,0,.953-.953A.9.9,0,0,0,20.118,8.814ZM8.676,5a.9.9,0,0,0-.953.953V17.4a.9.9,0,0,0,.953.953h0A.9.9,0,0,0,9.63,17.4V5.953A.9.9,0,0,0,8.676,5Zm-4.2,6.674,1.049-.858a.946.946,0,0,0-1.24-1.43L2.383,11.007l-.1.1a.921.921,0,0,0,.1,1.335L4.29,14.058a1.355,1.355,0,0,0,.572.191.867.867,0,0,0,.763-.381.921.921,0,0,0-.1-1.335Z" transform="translate(-2.045 -5)"/></svg>