<svg xmlns="http://www.w3.org/2000/svg" width="40" height="28" viewBox="0 0 40 28"><defs><style>.a{fill:#192956;}</style></defs><path class="a" d="M39.951,29H23.994a2,2,0,0,0,0,4H39.951a2,2,0,0,0,0-4Zm0-8H23.994A1.887,1.887,0,0,0,22,23a1.887,1.887,0,0,0,1.995,2H39.951a1.887,1.887,0,0,0,1.995-2A1.887,1.887,0,0,0,39.951,21ZM23.994,9H39.951a1.887,1.887,0,0,0,1.995-2,1.887,1.887,0,0,0-1.995-2H23.994A1.887,1.887,0,0,0,22,7,1.887,1.887,0,0,0,23.994,9Zm15.956,4H23.994A1.887,1.887,0,0,0,22,15a1.887,1.887,0,0,0,1.995,2H39.951a1.887,1.887,0,0,0,1.995-2A1.887,1.887,0,0,0,39.951,13ZM16.016,5a1.887,1.887,0,0,0-1.995,2V31a1.887,1.887,0,0,0,1.995,2h0a1.887,1.887,0,0,0,1.995-2V7A1.887,1.887,0,0,0,16.016,5ZM5.246,14.2a1.935,1.935,0,0,0-2.792.2,1.936,1.936,0,0,0,.2,2.8L4.847,19,2.653,20.8a2.275,2.275,0,0,0-.6,1.6,1.887,1.887,0,0,0,1.995,2,2.135,2.135,0,0,0,1.2-.4l3.989-3.4.2-.2a1.936,1.936,0,0,0-.2-2.8Z" transform="translate(-1.945 -5)"/></svg>