<svg xmlns="http://www.w3.org/2000/svg" width="40" height="30" viewBox="0 0 40 30"><defs><style>.a{fill:#192956;}</style></defs><path class="a" d="M37.042,30.714H17.212a2.143,2.143,0,1,0,0,4.286H37.042a2.143,2.143,0,1,0,0-4.286Zm7.937-8.571H9.275a2.143,2.143,0,1,0,0,4.286h35.7a2.143,2.143,0,1,0,0-4.286ZM9.275,9.286h35.7a2.027,2.027,0,0,0,2.148-2.143A2.027,2.027,0,0,0,44.979,5H9.275A2.027,2.027,0,0,0,7.127,7.143,2.027,2.027,0,0,0,9.275,9.286Zm27.767,4.286H17.212a2.027,2.027,0,0,0-2.148,2.143,2.027,2.027,0,0,0,2.148,2.143H37.042a2.027,2.027,0,0,0,2.148-2.143A2.027,2.027,0,0,0,37.042,13.571Z" transform="translate(-7.127 -5)"/></svg>