<svg xmlns="http://www.w3.org/2000/svg" width="16.592" height="14.95" viewBox="0 0 16.592 14.95"><defs><style>.a{fill:#192956;}</style></defs><g transform="translate(-686.174 -151.178)"><path class="a" d="M9.64,12.078,6.72,15a1.9,1.9,0,0,1-2.634,0,1.859,1.859,0,0,1,0-2.634l2.92-2.92A.756.756,0,0,0,5.938,8.375L3.018,11.3a3.371,3.371,0,0,0,4.764,4.764l2.927-2.92A.756.756,0,1,0,9.64,12.078ZM16.1,2.987a3.379,3.379,0,0,0-4.764,0L8.406,5.907A.756.756,0,0,0,9.475,6.975l2.92-2.92a1.9,1.9,0,0,1,2.634,0,1.859,1.859,0,0,1,0,2.634l-2.92,2.92a.756.756,0,1,0,1.069,1.069L16.1,7.751a3.379,3.379,0,0,0,0-4.764ZM7.172,11.912a.763.763,0,0,0,1.069,0l3.7-3.7a.756.756,0,1,0-1.069-1.069l-3.7,3.7a.753.753,0,0,0,0,1.069Z" transform="translate(684.045 149.173)"/><g transform="translate(697.641 160.243)"><path class="a" d="M6.427,11.125a.427.427,0,0,1-.3-.729L10.4,6.125a.427.427,0,1,1,.6.6L6.729,11a.426.426,0,0,1-.3.125Z" transform="translate(-6 -6)"/><path class="a" d="M10.7,11.125A.426.426,0,0,1,10.4,11L6.125,6.729a.427.427,0,1,1,.6-.6L11,10.4a.427.427,0,0,1-.3.729Z" transform="translate(-6 -6)"/></g></g></svg>