<svg xmlns="http://www.w3.org/2000/svg" width="45" height="26" viewBox="0 0 45 26"><defs><style>.a{fill:#192956;}</style></defs><path class="a" d="M5.848,28.295a2.263,2.263,0,0,0-.742-.455,2.33,2.33,0,0,0-1.71,0,2.263,2.263,0,0,0-.742.455,2.158,2.158,0,0,0-.472.715,2.108,2.108,0,0,0,.472,2.362,2.6,2.6,0,0,0,.742.455,2.189,2.189,0,0,0,1.71,0,2.6,2.6,0,0,0,.742-.455A2.108,2.108,0,0,0,6.32,29.01a2.158,2.158,0,0,0-.472-.715Zm7.4-17.961h31.5A2.209,2.209,0,0,0,47,8.167,2.209,2.209,0,0,0,44.75,6H13.25A2.209,2.209,0,0,0,11,8.167,2.209,2.209,0,0,0,13.25,10.333Zm-7.4,7.128A2.314,2.314,0,0,0,3.4,17.006a2.6,2.6,0,0,0-.742.455,2.158,2.158,0,0,0-.472.715,1.968,1.968,0,0,0,0,1.647,2.482,2.482,0,0,0,.472.715,2.6,2.6,0,0,0,.742.455,2.19,2.19,0,0,0,1.71,0,2.6,2.6,0,0,0,.742-.455,2.482,2.482,0,0,0,.472-.715,1.968,1.968,0,0,0,0-1.647,2.158,2.158,0,0,0-.472-.715Zm38.9-.628H13.25a2.168,2.168,0,1,0,0,4.333h31.5a2.168,2.168,0,1,0,0-4.333Zm-38.9-10.2a2.263,2.263,0,0,0-.742-.455,2.314,2.314,0,0,0-2.452.455,2.482,2.482,0,0,0-.472.715,1.968,1.968,0,0,0,0,1.647,2.482,2.482,0,0,0,.472.715,2.6,2.6,0,0,0,.742.455A2.314,2.314,0,0,0,5.848,9.7,2.482,2.482,0,0,0,6.32,8.99a1.968,1.968,0,0,0,0-1.647A2.482,2.482,0,0,0,5.848,6.628Zm38.9,21.038H13.25a2.168,2.168,0,1,0,0,4.333h31.5a2.168,2.168,0,1,0,0-4.333Z" transform="translate(-2 -6)"/></svg>