<svg xmlns="http://www.w3.org/2000/svg" width="34" height="34" viewBox="0 0 34 34"><defs><style>.a{fill:#192956;}</style></defs><g transform="translate(-2 -0.999)"><g transform="translate(7.651 0.999)"><path class="a" d="M9.978,1V24.574h22.7V1ZM29.847,15.238l-5.482-4.8L18.528,17.42l-1.934-3.087L12.811,17.3V3.719H29.847Z" transform="translate(-9.978 -0.999)"/><path class="a" d="M22.489,10.657a2.928,2.928,0,0,1-5.851,0,2.928,2.928,0,0,1,5.851,0Z" transform="translate(-11.921 -3.191)"/></g><g transform="translate(2 1)"><g transform="translate(0 0)"><rect class="a" width="4.25" height="2.72"/></g></g><g transform="translate(2 6.213)"><g transform="translate(0)"><rect class="a" width="4.25" height="2.72"/></g></g><g transform="translate(2 11.427)"><g transform="translate(0)"><rect class="a" width="4.25" height="2.72"/></g></g><g transform="translate(2 16.64)"><g transform="translate(0)"><rect class="a" width="4.25" height="2.72"/></g></g><g transform="translate(2 21.853)"><g transform="translate(0)"><rect class="a" width="4.25" height="2.72"/></g></g><g transform="translate(31.75 1)"><g transform="translate(0 0)"><rect class="a" width="4.25" height="2.72"/></g></g><g transform="translate(31.75 6.213)"><rect class="a" width="4.25" height="2.72"/></g><g transform="translate(31.75 11.427)"><rect class="a" width="4.25" height="2.72"/></g><g transform="translate(31.75 16.64)"><rect class="a" width="4.25" height="2.72"/></g><g transform="translate(31.75 21.853)"><rect class="a" width="4.25" height="2.72"/></g><g transform="translate(2 27.066)"><g transform="translate(0)"><rect class="a" width="34" height="2.72"/></g></g><g transform="translate(2 32.279)"><rect class="a" width="34" height="2.72" transform="translate(0)"/></g></g></svg>