<svg xmlns="http://www.w3.org/2000/svg" width="42" height="34" viewBox="0 0 42 34"><defs><style>.a{fill:#192956;}</style></defs><path class="a" d="M40.688,32.833H5.25V5.917A1.367,1.367,0,0,0,3.938,4.5H1.313A1.367,1.367,0,0,0,0,5.917v29.75A2.735,2.735,0,0,0,2.625,38.5H40.688A1.367,1.367,0,0,0,42,37.083V34.25A1.367,1.367,0,0,0,40.688,32.833Zm-2.625-25.5H28.378a2.15,2.15,0,0,0-1.392,3.628l2.658,2.869-6.019,6.5-6.019-6.5a2.49,2.49,0,0,0-3.712,0L8.26,19.912a1.5,1.5,0,0,0,0,2l1.856,2a1.245,1.245,0,0,0,1.856,0L15.75,19.84l6.019,6.5a2.49,2.49,0,0,0,3.712,0l7.875-8.5L36.013,20.7a1.954,1.954,0,0,0,3.361-1.5V8.75A1.366,1.366,0,0,0,38.063,7.333Z" transform="translate(0 -4.5)"/></svg>