<svg xmlns="http://www.w3.org/2000/svg" width="34" height="27" viewBox="0 0 34 27"><defs><style>.a{fill:#192956;}</style></defs><path class="a" d="M22.1,22.5h2.55a.942.942,0,0,0,.85-.9V12.15a.942.942,0,0,0-.85-.9H22.1a.942.942,0,0,0-.85.9V21.6a.942.942,0,0,0,.85.9Zm6.375,0h2.55a.942.942,0,0,0,.85-.9V5.4a.942.942,0,0,0-.85-.9h-2.55a.942.942,0,0,0-.85.9V21.6a.942.942,0,0,0,.85.9ZM9.35,22.5H11.9a.942.942,0,0,0,.85-.9V16.65a.942.942,0,0,0-.85-.9H9.35a.942.942,0,0,0-.85.9V21.6A.942.942,0,0,0,9.35,22.5Zm6.375,0h2.55a.942.942,0,0,0,.85-.9V7.65a.942.942,0,0,0-.85-.9h-2.55a.942.942,0,0,0-.85.9V21.6A.942.942,0,0,0,15.725,22.5ZM32.938,27H4.25V5.625A1.1,1.1,0,0,0,3.188,4.5H1.063A1.1,1.1,0,0,0,0,5.625V29.25A2.19,2.19,0,0,0,2.125,31.5H32.938A1.1,1.1,0,0,0,34,30.375v-2.25A1.1,1.1,0,0,0,32.938,27Z" transform="translate(0 -4.5)"/></svg>