<svg xmlns="http://www.w3.org/2000/svg" width="24.084" height="24.084" viewBox="0 0 24.084 24.084">
  <path id="Icon_awesome-chevron-circle-left" data-name="Icon awesome-chevron-circle-left" d="M12.6,24.646A12.042,12.042,0,1,1,24.646,12.6,12.04,12.04,0,0,1,12.6,24.646ZM7.074,13.43l6.579,6.579a1.161,1.161,0,0,0,1.646,0l.825-.825a1.161,1.161,0,0,0,0-1.646L11.191,12.6l4.933-4.933a1.161,1.161,0,0,0,0-1.646L15.3,5.2a1.161,1.161,0,0,0-1.646,0L7.074,11.779A1.166,1.166,0,0,0,7.074,13.43Z" transform="translate(-0.563 -0.563)" fill="#00b1b2" opacity="0.61"/>
</svg>
