<svg xmlns="http://www.w3.org/2000/svg" width="34" height="34" viewBox="0 0 34 34"><defs><style>.a{fill:#192956;}</style></defs><path class="a" d="M20.7,17.3H10.5a1.7,1.7,0,1,0,0,3.4H20.7a1.7,1.7,0,1,0,0-3.4Zm6.8-6.8h-17a1.7,1.7,0,1,0,0,3.4h17a1.7,1.7,0,1,0,0-3.4ZM30.9,2H7.1A5.1,5.1,0,0,0,2,7.1v17a5.1,5.1,0,0,0,5.1,5.1H26.8l6.29,6.307A1.7,1.7,0,0,0,34.3,36a1.428,1.428,0,0,0,.646-.136A1.7,1.7,0,0,0,36,34.3V7.1A5.1,5.1,0,0,0,30.9,2Zm1.7,28.2-3.893-3.91A1.7,1.7,0,0,0,27.5,25.8H7.1a1.7,1.7,0,0,1-1.7-1.7V7.1A1.7,1.7,0,0,1,7.1,5.4H30.9a1.7,1.7,0,0,1,1.7,1.7Z" transform="translate(-2 -2)"/></svg>