<svg xmlns="http://www.w3.org/2000/svg" width="40" height="40" viewBox="0 0 40 40"><defs><style>.a{fill:#192956;}</style></defs><path class="a" d="M22.225,28.956l-7.812,7.812a5.074,5.074,0,0,1-7.047,0,4.973,4.973,0,0,1,0-7.047l7.812-7.812a2.022,2.022,0,0,0-2.859-2.859L4.507,26.882A9.02,9.02,0,0,0,17.252,39.627l7.832-7.812a2.022,2.022,0,1,0-2.859-2.859ZM39.5,4.633a9.041,9.041,0,0,0-12.745,0l-7.832,7.812A2.022,2.022,0,0,0,21.782,15.3l7.812-7.812a5.074,5.074,0,0,1,7.047,0,4.973,4.973,0,0,1,0,7.047L28.83,22.351a2.022,2.022,0,1,0,2.859,2.859L39.5,17.378a9.041,9.041,0,0,0,0-12.745Zm-23.88,23.88a2.042,2.042,0,0,0,2.859,0l9.906-9.906a2.022,2.022,0,0,0-2.859-2.859l-9.906,9.906a2.013,2.013,0,0,0,0,2.859Z" transform="translate(-2.129 -2.005)"/></svg>