<svg xmlns="http://www.w3.org/2000/svg" width="49.074" height="39.427" viewBox="0 0 49.074 39.427"><defs><style>.a{fill:#192956;stroke:#fff;}</style></defs><g transform="translate(0.511 0.5)"><path class="a" d="M49.847,22.253C45,10.989,35.869,4,26.022,4S7.048,10.989,2.2,22.253a2.4,2.4,0,0,0,0,1.921C7.048,35.438,16.175,42.427,26.022,42.427S45,35.438,49.847,24.174A2.4,2.4,0,0,0,49.847,22.253ZM26.022,37.624c-7.613,0-14.819-5.5-18.974-14.41C11.2,14.3,18.409,8.8,26.022,8.8S40.841,14.3,45,23.214C40.841,32.124,33.636,37.624,26.022,37.624Zm0-24.017a9.607,9.607,0,1,0,9.607,9.607A9.607,9.607,0,0,0,26.022,13.607Zm0,14.41a4.8,4.8,0,1,1,4.8-4.8A4.8,4.8,0,0,1,26.022,28.017Z" transform="translate(-1.997 -4)"/></g></svg>