<svg xmlns="http://www.w3.org/2000/svg" width="22" height="22" viewBox="0 0 22 22"><defs><style>.a{fill:none;}.b{fill:#e06989;}</style></defs><path class="a" d="M0,0H22V22H0Z"/><path class="a" d="M0,0H22V22H0Z"/><path class="b" d="M5.908,17.6a1.826,1.826,0,0,0,1.815,1.825h7.262A1.826,1.826,0,0,0,16.8,17.6V6.65H5.908Zm2.233-6.5,1.28-1.287,1.933,1.935,1.924-1.935,1.28,1.287-1.924,1.935,1.924,1.935-1.28,1.287-1.924-1.935L9.43,16.259,8.15,14.972l1.924-1.935Zm6.391-7.191L13.624,3H9.085l-.908.913H5V5.738H17.708V3.913Z" transform="translate(-0.354 -0.213)"/></svg>