<svg xmlns="http://www.w3.org/2000/svg" width="39" height="39" viewBox="0 0 39 39"><defs><style>.a{fill:none;}.b{fill:#192956;}</style></defs><path class="a" d="M0,0H39V39H0Z"/><path class="a" d="M0,0H39V39H0Z"/><path class="b" d="M6.893,31a3.663,3.663,0,0,0,3.786,3.5H25.825A3.663,3.663,0,0,0,29.611,31V10H6.893ZM11.55,18.541l2.669-2.468,4.032,3.71,4.014-3.71,2.669,2.468-4.014,3.71,4.014,3.71L22.266,28.43l-4.014-3.71-4.014,3.71-2.669-2.468,4.014-3.71ZM24.878,4.75,22.985,3H13.519L11.626,4.75H5v3.5H31.5V4.75Z" transform="translate(1.248 0.749)"/></svg>