<svg xmlns="http://www.w3.org/2000/svg" width="34" height="37" viewBox="0 0 34 37"><defs><style>.a{fill:#192956;}</style></defs><path class="a" d="M16.222,31.6a1.87,1.87,0,0,0,1.889-1.85V18.65a1.889,1.889,0,0,0-3.778,0v11.1A1.87,1.87,0,0,0,16.222,31.6ZM35.111,9.4H27.556V7.55A5.609,5.609,0,0,0,21.889,2H18.111a5.609,5.609,0,0,0-5.667,5.55V9.4H4.889a1.85,1.85,0,1,0,0,3.7H6.778V33.45A5.609,5.609,0,0,0,12.444,39H27.556a5.609,5.609,0,0,0,5.667-5.55V13.1h1.889a1.85,1.85,0,1,0,0-3.7ZM16.222,7.55A1.87,1.87,0,0,1,18.111,5.7h3.778a1.87,1.87,0,0,1,1.889,1.85V9.4H16.222Zm13.222,25.9a1.87,1.87,0,0,1-1.889,1.85H12.444a1.87,1.87,0,0,1-1.889-1.85V13.1H29.444ZM23.778,31.6a1.87,1.87,0,0,0,1.889-1.85V18.65a1.889,1.889,0,0,0-3.778,0v11.1A1.87,1.87,0,0,0,23.778,31.6Z" transform="translate(-3 -2)"/></svg>