<svg id="Component_94_2" data-name="Component 94 – 2" xmlns="http://www.w3.org/2000/svg" width="30.258" height="18.6" viewBox="0 0 30.258 18.6">
  <text id="Dashboard" transform="translate(18.254 4.1)" fill="#fff" font-size="4" font-family="OpenSans, Open Sans"><tspan x="-10" y="0">Dashboard</tspan></text>
  <g id="Component_93_1" data-name="Component 93 – 1">
    <path id="Path_20840" data-name="Path 20840" d="M25.157,12.835C22.809,7.383,18.391,4,13.625,4S4.442,7.383,2.094,12.835a1.162,1.162,0,0,0,0,.93C4.442,19.217,8.859,22.6,13.625,22.6s9.184-3.383,11.532-8.835A1.162,1.162,0,0,0,25.157,12.835Zm-11.532,7.44c-3.685,0-7.172-2.662-9.184-6.975,2.011-4.313,5.5-6.975,9.184-6.975S20.8,8.987,22.809,13.3C20.8,17.613,17.31,20.275,13.625,20.275Zm0-11.625a4.65,4.65,0,1,0,4.65,4.65A4.65,4.65,0,0,0,13.625,8.65Zm0,6.975A2.325,2.325,0,1,1,15.95,13.3,2.325,2.325,0,0,1,13.625,15.625Z" transform="translate(-1.996 -4)" fill="#00b1b2"/>
  </g>
</svg>
