<svg xmlns="http://www.w3.org/2000/svg" width="35" height="39" viewBox="0 0 35 39"><defs><style>.a{fill:#192956;}</style></defs><path class="a" d="M3.458,1A1.427,1.427,0,0,1,4.916,2.393V10.75a1.427,1.427,0,0,0,1.458,1.393H32.626a1.426,1.426,0,0,0,1.458-1.393V2.393a1.46,1.46,0,0,1,2.916,0V10.75a4.2,4.2,0,0,1-2.919,3.942v3.022a5.707,5.707,0,0,1-5.832,5.571h0l.009,4.847a4.136,4.136,0,0,1-2.011,3.524L13,39.779a1.517,1.517,0,0,1-1.487.05,1.385,1.385,0,0,1-.759-1.222V23.286h0a5.706,5.706,0,0,1-5.832-5.571V14.692A4.2,4.2,0,0,1,2,10.75V2.393A1.427,1.427,0,0,1,3.458,1ZM13.673,23.286V36.057l11-6.745a1.379,1.379,0,0,0,.67-1.174l-.009-4.852ZM7.835,17.714A2.853,2.853,0,0,0,10.751,20.5h17.5a2.853,2.853,0,0,0,2.916-2.786V14.929H7.835Z" transform="translate(-2 -1)"/></svg>