<svg xmlns="http://www.w3.org/2000/svg" width="39.876" height="45" viewBox="0 0 39.876 45"><defs><style>.a{fill:#192956;}</style></defs><path class="a" d="M29.584,1H16.292V5.286H29.584ZM20.723,28.857h4.431V16H20.723ZM38.512,14.693l3.146-3.043a24.092,24.092,0,0,0-3.124-3.021l-3.146,3.043a20.275,20.275,0,0,0-12.45-4.243C11.928,7.429,3,16.064,3,26.714S11.906,46,22.938,46s19.938-8.636,19.938-19.286A18.819,18.819,0,0,0,38.512,14.693ZM22.938,41.714a15.249,15.249,0,0,1-15.508-15,15.249,15.249,0,0,1,15.508-15,15.249,15.249,0,0,1,15.508,15A15.249,15.249,0,0,1,22.938,41.714Z" transform="translate(-3 -1)"/></svg>