<svg xmlns="http://www.w3.org/2000/svg" width="40" height="34" viewBox="0 0 40 34"><defs><style>.a{fill:#192956;}</style></defs><path class="a" d="M19.191,9.064a1.4,1.4,0,0,0-.253-.452L15.322,4.5a1.111,1.111,0,0,0-1.712,0,1.51,1.51,0,0,0,0,1.944l1.567,1.766H3.616A1.3,1.3,0,0,1,2.411,6.846V1.369A1.3,1.3,0,0,0,1.205,0,1.3,1.3,0,0,0,0,1.369V6.846a3.885,3.885,0,0,0,3.616,4.107H15.177L13.61,12.719a1.5,1.5,0,0,0,0,1.944,1.107,1.107,0,0,0,1.712,0l3.616-4.107a1.4,1.4,0,0,0,.253-.452A1.542,1.542,0,0,0,19.191,9.064Z" transform="translate(0 18.932)"/><g transform="translate(6.659)"><path class="a" d="M3.667,12.786H33.674a1.791,1.791,0,0,0,1.667-1.893A1.791,1.791,0,0,0,33.674,9H3.667A1.791,1.791,0,0,0,2,10.893,1.791,1.791,0,0,0,3.667,12.786Zm30.007,3.786H3.667A1.791,1.791,0,0,0,2,18.466a1.791,1.791,0,0,0,1.667,1.893H33.674a1.791,1.791,0,0,0,1.667-1.893A1.791,1.791,0,0,0,33.674,16.573Z" transform="translate(-2 -9)"/><rect class="a" width="33.341" height="3.786" rx="1.893" transform="translate(0 15.146)"/></g></svg>