<svg xmlns="http://www.w3.org/2000/svg" width="11.138" height="16.201" viewBox="0 0 11.138 16.201">
  <g id="iphone" transform="translate(-5)">
    <path id="Path_19468" data-name="Path 19468" d="M14.619,0h-8.1A1.518,1.518,0,0,0,5,1.519V14.682A1.518,1.518,0,0,0,6.519,16.2h8.1a1.519,1.519,0,0,0,1.519-1.519V1.519A1.519,1.519,0,0,0,14.619,0Zm.506,14.682a.507.507,0,0,1-.506.506h-8.1a.506.506,0,0,1-.506-.506V13.668h9.113Zm0-1.521H6.013V3.038h9.113Zm0-10.63H6.013V1.519a.506.506,0,0,1,.506-.506h8.1a.507.507,0,0,1,.506.506Z" fill="#cacdd3"/>
    <path id="Path_19469" data-name="Path 19469" d="M16.025,3.253a.254.254,0,0,1-.253.253H14.253A.253.253,0,0,1,14,3.253h0A.253.253,0,0,1,14.253,3h1.519a.253.253,0,0,1,.253.253Z" transform="translate(-4.443 -1.481)" fill="#cacdd3"/>
    <path id="Path_19470" data-name="Path 19470" d="M16.013,28.249a.254.254,0,0,1-.253.253h-.506A.254.254,0,0,1,15,28.249h0A.253.253,0,0,1,15.253,28h.506a.253.253,0,0,1,.253.253Z" transform="translate(-4.937 -13.822)" fill="#cacdd3"/>
  </g>
</svg>
