<svg xmlns="http://www.w3.org/2000/svg" width="30" height="43" viewBox="0 0 30 43"><defs><style>.a{fill:#192956;}</style></defs><g transform="translate(-5)"><path class="a" d="M30.909,0H9.091A4.06,4.06,0,0,0,5,4.031V38.969A4.06,4.06,0,0,0,9.091,43H30.909A4.063,4.063,0,0,0,35,38.969V4.031A4.061,4.061,0,0,0,30.909,0Zm1.364,38.969a1.356,1.356,0,0,1-1.364,1.344H9.091a1.353,1.353,0,0,1-1.364-1.344V36.276H32.273Zm0-4.037H7.727V8.063H32.273Zm0-28.213H7.727V4.031A1.354,1.354,0,0,1,9.091,2.687H30.909a1.355,1.355,0,0,1,1.364,1.344Z" transform="translate(0 0)"/><path class="a" d="M19.455,3.672a.678.678,0,0,1-.682.672H14.682A.676.676,0,0,1,14,3.672h0A.675.675,0,0,1,14.682,3h4.091a.677.677,0,0,1,.682.672Z" transform="translate(3.273 1.031)"/><path class="a" d="M17.727,28.668a.679.679,0,0,1-.682.672H15.682A.678.678,0,0,1,15,28.668h0A.676.676,0,0,1,15.682,28h1.364a.677.677,0,0,1,.682.672Z" transform="translate(3.636 9.624)"/></g></svg>