<svg xmlns="http://www.w3.org/2000/svg" width="40" height="35" viewBox="0 0 40 35"><defs><style>.a{fill:#192956;}</style></defs><path class="a" d="M41.439,32.93l-1.9-7.223h0l-6-21.689a1.908,1.908,0,0,0-2.324-1.329L23.84,4.56a1.919,1.919,0,0,0-1.39-.618H3.4A1.888,1.888,0,0,0,1.5,5.814V35.756a1.888,1.888,0,0,0,1.9,1.871H22.45a1.888,1.888,0,0,0,1.9-1.871V20.785l4.19,15.383a1.9,1.9,0,0,0,1.9,1.385,2.229,2.229,0,0,0,.5,0l9.2-2.414a1.9,1.9,0,0,0,1.162-.88,1.934,1.934,0,0,0,.133-1.329ZM10.966,33.959H5.252V30.216h5.714Zm0-7.485H5.252V15.246h5.714Zm0-14.971H5.252V7.76h5.714Zm9.523,22.456H14.775V30.216h5.714Zm0-7.485H14.775V15.246h5.714Zm0-14.971H14.775V7.76h5.714Zm4.285-3.256L30.3,6.787l.99,3.612-5.523,1.46Zm4.933,18.077L26.754,15.47l5.523-1.46L35.23,24.864Zm1.9,7.223-.99-3.612,5.523-1.46.99,3.612Z" transform="translate(-1.5 -2.627)"/></svg>