<svg xmlns="http://www.w3.org/2000/svg" width="32" height="43" viewBox="0 0 32 43"><defs><style>.a{fill:#192956;}</style></defs><g transform="translate(-4)"><path class="a" d="M32,17.469V12.094a12,12,0,1,0-24,0v5.375A4.015,4.015,0,0,0,4,21.5v9.406A12.046,12.046,0,0,0,16,43h8A12.046,12.046,0,0,0,36,30.906V21.5A4.015,4.015,0,0,0,32,17.469ZM10.667,12.094a9.334,9.334,0,1,1,18.667,0v5.375H26.667V12.1a6.667,6.667,0,1,0-13.333,0v5.372H10.667Zm14.667,0v5.375H14.667V12.094a5.333,5.333,0,1,1,10.667,0Zm8,13.438v5.375A9.382,9.382,0,0,1,24,40.313H16a9.382,9.382,0,0,1-9.333-9.406V21.5A1.339,1.339,0,0,1,8,20.156H32A1.34,1.34,0,0,1,33.333,21.5Z"/><path class="a" d="M16.667,19A2.677,2.677,0,0,0,14,21.687a13.587,13.587,0,0,0,.889,3.591c.363,1,.819,1.782,1.777,1.782,1.043,0,1.415-.777,1.779-1.768a13.449,13.449,0,0,0,.888-3.6A2.677,2.677,0,0,0,16.667,19Z" transform="translate(3.333 6.531)"/></g></svg>