<svg xmlns="http://www.w3.org/2000/svg" width="33" height="33" viewBox="0 0 33 33"><defs><style>.a{fill:#192956;}</style></defs><path class="a" d="M10.25,31.7H5.3v-.165A1.479,1.479,0,0,1,6.785,30.05a5.149,5.149,0,0,0,4.95-3.63,4.99,4.99,0,0,0-3.465-6.1,4.882,4.882,0,0,0-5.61,2.31,1.67,1.67,0,0,0,.66,2.31,1.67,1.67,0,0,0,2.31-.66h0a1.623,1.623,0,0,1,2.31-.495c.165.165.33.165.33.33a2.452,2.452,0,0,1,.33,1.485A1.987,1.987,0,0,1,6.95,26.75,4.827,4.827,0,0,0,2,31.535V33.35A1.559,1.559,0,0,0,3.65,35h6.6a1.65,1.65,0,1,0,0-3.3Zm0-18.15H8.6V3.65A1.559,1.559,0,0,0,6.95,2,1.559,1.559,0,0,0,5.3,3.65V5.3H3.65A1.559,1.559,0,0,0,2,6.95,1.559,1.559,0,0,0,3.65,8.6H5.3v4.95H3.65A1.559,1.559,0,0,0,2,15.2a1.559,1.559,0,0,0,1.65,1.65h6.6A1.559,1.559,0,0,0,11.9,15.2,1.559,1.559,0,0,0,10.25,13.55Zm6.6-4.95h16.5A1.559,1.559,0,0,0,35,6.95,1.559,1.559,0,0,0,33.35,5.3H16.85A1.559,1.559,0,0,0,15.2,6.95,1.559,1.559,0,0,0,16.85,8.6Zm16.5,23.1H16.85a1.65,1.65,0,1,0,0,3.3h16.5a1.65,1.65,0,0,0,0-3.3Zm0-18.15H16.85A1.559,1.559,0,0,0,15.2,15.2a1.559,1.559,0,0,0,1.65,1.65h16.5A1.559,1.559,0,0,0,35,15.2,1.559,1.559,0,0,0,33.35,13.55Zm0,9.9H16.85a1.65,1.65,0,1,0,0,3.3h16.5a1.65,1.65,0,0,0,0-3.3Z" transform="translate(-2 -2)"/></svg>