<?xml version="1.0" encoding="utf-8"?>
<!DOCTYPE svg PUBLIC "-//W3C//DTD SVG 1.1//EN" "http://www.w3.org/Graphics/SVG/1.1/DTD/svg11.dtd">
<svg version="1.1" id="Layer_1" xmlns="http://www.w3.org/2000/svg" xmlns:xlink="http://www.w3.org/1999/xlink" x="0px" y="0px"
	 width="16px" height="16px" viewBox="0 0 16 16" enable-background="new 0 0 16 16" xml:space="preserve">
<g>
	<path fill="#A3D126" d="M8,0C3.582,0,0,3.582,0,8s3.582,8,8,8s8-3.582,8-8S12.418,0,8,0z M5.002,4.189
		c-0.369,0-0.664-0.296-0.664-0.664c0-0.364,0.295-0.663,0.664-0.663c0.363,0,0.663,0.299,0.663,0.663
		C5.665,3.894,5.365,4.189,5.002,4.189z M5.5,4.922v6.76h-1v-6.76H5.5z M11.508,11.159c-0.501,0.344-1.096,0.526-1.724,0.526H7.365
		v-0.004H6.867v-6.76h3.221c0.234,0,0.765,0.126,1.227,0.364c0.478,0.247,0.857,0.591,1.129,1.021
		c0.344,0.546,0.506,1.218,0.478,1.999C12.86,9.904,12.119,10.738,11.508,11.159z"/>
	<path fill="#A3D126" d="M10.905,6.075c-0.336-0.174-0.725-0.268-1.121-0.268H7.866v4.987h1.918c0.445,0,0.87-0.126,1.223-0.368
		c0.644-0.441,0.987-1.166,1.023-2.157C12.07,7.221,11.694,6.484,10.905,6.075z"/>
</g>
</svg>
