<svg xmlns="http://www.w3.org/2000/svg" width="36" height="36" viewBox="0 0 36 36"><defs><style>.a{fill:#192956;}</style></defs><path class="a" d="M32.6,2H7.4A5.4,5.4,0,0,0,2,7.4V32.6A5.4,5.4,0,0,0,7.4,38H32.6a5.058,5.058,0,0,0,.882-.09l.54-.126h.216l.666-.252.234-.126c.18-.108.378-.2.558-.324a6.822,6.822,0,0,0,.684-.576l.126-.162a4.841,4.841,0,0,0,.486-.576l.162-.234a4.158,4.158,0,0,0,.324-.63,1.8,1.8,0,0,0,.126-.27c.09-.216.144-.45.216-.684v-.27A4.68,4.68,0,0,0,38,32.6V7.4A5.4,5.4,0,0,0,32.6,2ZM7.4,34.4a1.8,1.8,0,0,1-1.8-1.8V24.842l5.922-5.94h0a1.8,1.8,0,0,1,2.556,0l15.48,15.5Zm27-1.8a1.462,1.462,0,0,1-.27.9,1.692,1.692,0,0,1-.162.216l-9.63-9.63L25.922,22.5a1.8,1.8,0,0,1,2.556,0h0l5.922,5.94Zm0-9.252L31.016,20a5.544,5.544,0,0,0-7.632,0L21.8,21.584,16.616,16.4a5.544,5.544,0,0,0-7.632,0L5.6,19.748V7.4A1.8,1.8,0,0,1,7.4,5.6H32.6a1.8,1.8,0,0,1,1.8,1.8ZM22.7,9.2a2.7,2.7,0,1,0,2.7,2.7A2.7,2.7,0,0,0,22.7,9.2Z" transform="translate(-2 -2)"/></svg>