<svg xmlns="http://www.w3.org/2000/svg" width="37.433" height="37.434" viewBox="0 0 37.433 37.434"><defs><style>.a{fill:#192956;}</style></defs><g transform="translate(-1039 -606)"><g transform="translate(1039 606)"><path class="a" d="M33.818,2H7.615A5.615,5.615,0,0,0,2,7.615V26.331a5.615,5.615,0,0,0,5.615,5.615H29.307l6.925,6.944a1.872,1.872,0,0,0,1.329.543,1.572,1.572,0,0,0,.711-.15,1.872,1.872,0,0,0,1.16-1.722V7.615A5.615,5.615,0,0,0,33.818,2ZM35.69,33.051l-4.286-4.3a1.872,1.872,0,0,0-1.329-.543H7.615a1.872,1.872,0,0,1-1.872-1.872V7.615A1.872,1.872,0,0,1,7.615,5.743h26.2A1.872,1.872,0,0,1,35.69,7.615Z" transform="translate(-2 -2)"/></g><path class="a" d="M14.133,15.346H2V12.919H14.133ZM8.71,3.934l2.275,2.275-5.5,5.5H3.213V9.431ZM11.634,5.56,9.359,3.285l1.11-1.11a.6.6,0,0,1,.855,0l1.42,1.42a.6.6,0,0,1,0,.855Z" transform="translate(1050.088 611.616)"/></g></svg>