<svg xmlns="http://www.w3.org/2000/svg" width="39" height="38.999" viewBox="0 0 39 38.999"><defs><style>.a{fill:#192956;}</style></defs><g transform="translate(0 -0.002)"><path class="a" d="M37.039,15.453,33.3,14.705a14.745,14.745,0,0,0-.654-1.571L34.766,9.96a2.436,2.436,0,0,0-.3-3.075L32.117,4.541a2.436,2.436,0,0,0-3.075-.3L25.868,6.35A14.734,14.734,0,0,0,24.295,5.7l-.748-3.735A2.436,2.436,0,0,0,21.156,0H17.841a2.438,2.438,0,0,0-2.39,1.96L14.7,5.7a14.737,14.737,0,0,0-1.571.653L9.96,4.236a2.438,2.438,0,0,0-3.076.3L4.54,6.885a2.436,2.436,0,0,0-.3,3.075L6.35,13.134A14.611,14.611,0,0,0,5.7,14.706l-3.737.747A2.438,2.438,0,0,0,0,17.843v3.315a2.437,2.437,0,0,0,1.96,2.39L5.7,24.3a14.738,14.738,0,0,0,.653,1.571L4.235,29.042a2.436,2.436,0,0,0,.3,3.075l2.345,2.345a2.436,2.436,0,0,0,3.075.3l3.174-2.116a14.375,14.375,0,0,0,1.572.654l.747,3.734A2.438,2.438,0,0,0,17.843,39h3.315a2.438,2.438,0,0,0,2.39-1.961l.75-3.734a14.746,14.746,0,0,0,1.571-.654l3.174,2.116a2.436,2.436,0,0,0,3.075-.3l2.345-2.345a2.436,2.436,0,0,0,.3-3.075L32.65,25.869A14.5,14.5,0,0,0,33.3,24.3l3.734-.747A2.437,2.437,0,0,0,39,21.158V17.843A2.439,2.439,0,0,0,37.039,15.453Zm-4.213,6.453A2.434,2.434,0,0,0,31,23.5a12.376,12.376,0,0,1-.545,1.309,2.433,2.433,0,0,0,.165,2.416L32.738,30.4,30.393,32.74,27.22,30.624a2.439,2.439,0,0,0-2.413-.167A12.325,12.325,0,0,1,23.5,31a2.435,2.435,0,0,0-1.588,1.823l-.75,3.737H17.843L17.1,32.828A2.434,2.434,0,0,0,15.506,31a12.4,12.4,0,0,1-1.31-.545,2.432,2.432,0,0,0-2.414.165L8.608,32.74,6.263,30.4l2.115-3.174a2.442,2.442,0,0,0,.167-2.413A12.316,12.316,0,0,1,8,23.5a2.437,2.437,0,0,0-1.823-1.588l-3.735-.75,0-3.316L6.174,17.1A2.436,2.436,0,0,0,8,15.507a12.144,12.144,0,0,1,.545-1.31,2.431,2.431,0,0,0-.166-2.414L6.263,8.609,8.607,6.264,11.78,8.378a2.439,2.439,0,0,0,2.413.167A12.3,12.3,0,0,1,15.5,8a2.436,2.436,0,0,0,1.589-1.823l.748-3.735h3.315L21.9,6.176A2.436,2.436,0,0,0,23.494,8a12.125,12.125,0,0,1,1.309.545,2.439,2.439,0,0,0,2.416-.166l3.174-2.115,2.345,2.345-2.116,3.174a2.444,2.444,0,0,0-.167,2.413A12.3,12.3,0,0,1,31,15.506a2.434,2.434,0,0,0,1.823,1.589l3.734.748,0,3.315Z" transform="translate(0 0)"/><path class="a" d="M17.531,9a8.531,8.531,0,1,0,8.531,8.531A8.533,8.533,0,0,0,17.531,9Zm0,16A7.465,7.465,0,1,1,25,17.533,7.467,7.467,0,0,1,17.531,25Z" transform="translate(1.969 1.969)"/><path class="a" d="M16.875,12a4.875,4.875,0,1,0,4.875,4.875A4.874,4.874,0,0,0,16.875,12Zm0,8.532a3.656,3.656,0,1,1,3.656-3.656A3.658,3.658,0,0,1,16.875,20.533Z" transform="translate(2.625 2.625)"/></g></svg>