<svg xmlns="http://www.w3.org/2000/svg" width="20.235" height="10.607" viewBox="0 0 20.235 10.607"><defs><style>.a{fill:#192956;}</style></defs><path class="a" d="M15.382,7.138a.758.758,0,0,0-1.076,0L8.662,12.79,6.29,10.411a.774.774,0,1,0-1.076,1.114l2.909,2.909a.758.758,0,0,0,1.076,0l6.182-6.182a.758.758,0,0,0,0-1.114Z" transform="translate(4.609 -6.146)"/><path class="a" d="M13.232,12.874,11.1,4.339A1.765,1.765,0,0,0,9.383,3H8.866A1.765,1.765,0,0,0,7.151,4.339L5.017,12.874a.589.589,0,1,0,1.143.286l.772-3.089h4.383l.772,3.089a.589.589,0,1,0,1.143-.286Zm-6-3.982L8.295,4.625a.588.588,0,0,1,.572-.447h.517a.588.588,0,0,1,.572.447l1.067,4.267Z" transform="translate(-5 -3)"/></svg>