<svg xmlns="http://www.w3.org/2000/svg" width="45.936" height="47.059" viewBox="0 0 45.936 47.059">
  <g id="noun_loading_35633" transform="matrix(-0.966, 0.259, -0.259, -0.966, 53.521, 40.94)">
    <g id="Group_25404" data-name="Group 25404">
      <g id="Group_25403" data-name="Group 25403">
        <path id="Path_20761" data-name="Path 20761" d="M33.921,7.762a1.7,1.7,0,1,0,1.7-1.713A1.705,1.705,0,0,0,33.921,7.762Z" fill="#00b1b2"/>
        <path id="Path_20762" data-name="Path 20762" d="M41.377,15.213A1.7,1.7,0,1,0,43.072,13.5,1.707,1.707,0,0,0,41.377,15.213Z" fill="#00b1b2"/>
        <ellipse id="Ellipse_288" data-name="Ellipse 288" cx="1.834" cy="1.854" rx="1.834" ry="1.854" transform="translate(44.034 23.577)" fill="#00b1b2"/>
        <ellipse id="Ellipse_289" data-name="Ellipse 289" cx="2.186" cy="2.21" rx="2.186" ry="2.21" transform="translate(40.887 33.462)" fill="#00b1b2"/>
        <path id="Path_20763" data-name="Path 20763" d="M33.433,43.215a2.186,2.186,0,1,0,2.188-2.21A2.2,2.2,0,0,0,33.433,43.215Z" fill="#00b1b2"/>
        <path id="Path_20764" data-name="Path 20764" d="M23.081,46.117a2.427,2.427,0,1,0,2.429-2.451A2.442,2.442,0,0,0,23.081,46.117Z" fill="#00b1b2"/>
        <ellipse id="Ellipse_290" data-name="Ellipse 290" cx="2.426" cy="2.455" rx="2.426" ry="2.455" transform="translate(12.943 40.76)" fill="#00b1b2"/>
        <path id="Path_20765" data-name="Path 20765" d="M5.063,35.672a2.767,2.767,0,1,0,2.765-2.791A2.783,2.783,0,0,0,5.063,35.672Z" fill="#00b1b2"/>
        <path id="Path_20766" data-name="Path 20766" d="M2.3,25.431a2.765,2.765,0,1,0,2.765-2.794A2.781,2.781,0,0,0,2.3,25.431Z" fill="#00b1b2"/>
        <path id="Path_20767" data-name="Path 20767" d="M4.641,15.213a3.19,3.19,0,1,0,3.187-3.226A3.2,3.2,0,0,0,4.641,15.213Z" fill="#00b1b2"/>
        <path id="Path_20768" data-name="Path 20768" d="M12.18,7.762a3.19,3.19,0,1,0,3.189-3.223A3.206,3.206,0,0,0,12.18,7.762Z" fill="#00b1b2"/>
        <path id="Path_20769" data-name="Path 20769" d="M22.035,4.938A3.471,3.471,0,1,0,25.509,1.43,3.491,3.491,0,0,0,22.035,4.938Z" fill="#00b1b2"/>
      </g>
    </g>
  </g>
</svg>
