<svg xmlns="http://www.w3.org/2000/svg" width="46" height="34" viewBox="0 0 46 34"><defs><style>.a{fill:#192956;}</style></defs><path class="a" d="M8.452,35.429a2.452,2.452,0,0,1-1.734-4.186L31.242,6.718a2.452,2.452,0,1,1,3.468,3.468L10.186,34.71a2.444,2.444,0,0,1-1.734.719Z" transform="translate(-6 -6)"/><path class="a" d="M32.976,35.429a2.444,2.444,0,0,1-1.734-.719L6.718,10.186a2.452,2.452,0,1,1,3.468-3.468L34.71,31.242a2.452,2.452,0,0,1-1.734,4.186Z" transform="translate(-6 -6)"/><path class="a" d="M9.6,19.146H.417V16.915l3.3-3.849q1.464-1.733,1.913-2.4a5.505,5.505,0,0,0,.647-1.24,3.59,3.59,0,0,0,.2-1.183,1.877,1.877,0,0,0-.436-1.359,1.551,1.551,0,0,0-1.163-.446,2.982,2.982,0,0,0-1.482.4,7.658,7.658,0,0,0-1.5,1.152L.381,5.927A10.02,10.02,0,0,1,1.988,4.578,5.437,5.437,0,0,1,3.38,3.971a6.218,6.218,0,0,1,1.688-.213,4.435,4.435,0,0,1,2.173.519A3.667,3.667,0,0,1,8.706,5.73a4.313,4.313,0,0,1,.521,2.137,5.954,5.954,0,0,1-.319,1.966,7.857,7.857,0,0,1-.988,1.883,26.466,26.466,0,0,1-2.357,2.75L3.874,16.3v.145H9.6Z" transform="translate(36.405 14.854)"/></svg>