<svg xmlns="http://www.w3.org/2000/svg" width="46" height="29.429" viewBox="0 0 46 29.429"><defs><style>.a{fill:#192956;}</style></defs><path class="a" d="M8.452,35.429a2.452,2.452,0,0,1-1.734-4.186L31.243,6.718a2.452,2.452,0,1,1,3.468,3.468L10.186,34.711a2.444,2.444,0,0,1-1.734.719Z" transform="translate(-6 -6)"/><path class="a" d="M32.977,35.429a2.444,2.444,0,0,1-1.734-.719L6.718,10.186a2.452,2.452,0,1,1,3.468-3.468L34.711,31.243a2.452,2.452,0,0,1-1.734,4.186Z" transform="translate(-6 -6)"/><path class="a" d="M9.741,17.219H.563V15.267l3.3-3.367q1.464-1.516,1.913-2.1a4.631,4.631,0,0,0,.647-1.085,2.787,2.787,0,0,0,.2-1.035A1.516,1.516,0,0,0,6.18,6.491,1.678,1.678,0,0,0,5.017,6.1a3.316,3.316,0,0,0-1.482.354,7.641,7.641,0,0,0-1.5,1.007L.527,5.656a9.846,9.846,0,0,1,1.608-1.18,5.863,5.863,0,0,1,1.392-.531,7.061,7.061,0,0,1,1.688-.186,4.955,4.955,0,0,1,2.173.454A3.478,3.478,0,0,1,8.852,5.483a3.4,3.4,0,0,1,.521,1.87,4.619,4.619,0,0,1-.319,1.72,6.618,6.618,0,0,1-.988,1.647,24.289,24.289,0,0,1-2.358,2.405L4.02,14.732v.127H9.741Z" transform="translate(36.259 -3.759)"/></svg>