<svg xmlns="http://www.w3.org/2000/svg" width="41" height="41" viewBox="0 0 41 41"><defs><style>.a{fill:#192956;}</style></defs><path class="a" d="M9.29,11.468,7.921,13l.135.581h3.527c-.72,4.131-1.259,7.854-2.292,13.593C8.055,34.5,7.345,36.3,6.924,36.953A1.768,1.768,0,0,1,5.3,37.94a5.557,5.557,0,0,1-2.989-1.325.818.818,0,0,0-.949.087A3.444,3.444,0,0,0,0,38.978C-.042,40.059,1.415,41,2.805,41c1.225,0,3.029-.761,4.927-2.549,2.595-2.439,4.537-5.786,6.159-13.019,1.043-4.618,1.535-7.621,2.268-11.845l4.382-.394.949-1.725H16.556c1.275-7.954,2.272-9.132,3.5-9.132.814,0,1.763.621,2.854,1.842a.766.766,0,0,0,1.178.093,3.153,3.153,0,0,0,1.44-2.162C25.562,1.168,24.431,0,22.486,0c-1.763,0-4.466,1.168-6.738,3.463-1.992,2.092-3.036,4.7-3.756,8Zm14.02,5.325C24.67,15,25.485,14.4,25.905,14.4s.781.424,1.525,2.806L28.7,21.274c-2.46,3.73-4.261,5.809-5.354,5.809a1.406,1.406,0,0,1-.989-.367,1.305,1.305,0,0,0-.814-.464A2.446,2.446,0,0,0,19.5,28.681a2.207,2.207,0,0,0,2.221,2.352c2.184,0,4.032-2.125,7.6-7.761l1.043,3.487c.9,3,1.945,4.274,3.258,4.274,1.622,0,3.8-1.371,6.182-5.078l-1-1.128c-1.43,1.708-2.379,2.509-2.941,2.509-.626,0-1.175-.948-1.9-3.277l-1.525-4.915a34.2,34.2,0,0,1,2.571-3.31c.929-1.051,1.646-1.5,2.134-1.5a1.343,1.343,0,0,1,.989.417c.293.32.468.47.814.47A2.452,2.452,0,0,0,41,12.929a2.027,2.027,0,0,0-2.039-2.249c-1.992,0-3.749,1.7-7.131,6.687l-.7-2.139c-.976-3-1.622-4.548-2.982-4.548-1.582,0-3.756,1.929-5.883,4.985l1.047,1.128Z" transform="translate(0.002)"/></svg>