<svg xmlns="http://www.w3.org/2000/svg" width="23" height="31" viewBox="0 0 23 31"><defs><style>.a{fill:#192956;}</style></defs><path class="a" d="M30.486,15.042A8.991,8.991,0,0,0,21.547,6H10.054A2.569,2.569,0,0,0,7.5,8.583V34.417A2.569,2.569,0,0,0,10.054,37H21.547a8.914,8.914,0,0,0,8.3-5.619A9.09,9.09,0,0,0,27.779,21.5a9.093,9.093,0,0,0,2.707-6.458ZM21.547,31.833H12.608v-7.75h8.939a3.875,3.875,0,0,1,0,7.75Zm0-12.917H12.608v-7.75h8.939a3.875,3.875,0,0,1,0,7.75Z" transform="translate(-7.5 -6)"/></svg>