<svg xmlns="http://www.w3.org/2000/svg" width="31" height="37" viewBox="0 0 31 37"><defs><style>.a{fill:#192956;}</style></defs><path class="a" d="M21.5,31.633c7.134,0,12.917-5.522,12.917-12.333V6.967a2.586,2.586,0,0,0-5.167,0V19.3a7.581,7.581,0,0,1-7.75,7.4,7.581,7.581,0,0,1-7.75-7.4V6.967A2.527,2.527,0,0,0,11.167,4.5,2.527,2.527,0,0,0,8.583,6.967V19.3C8.583,26.112,14.366,31.633,21.5,31.633Zm12.917,4.933H8.583a2.469,2.469,0,1,0,0,4.933H34.417a2.469,2.469,0,1,0,0-4.933Z" transform="translate(-6 -4.5)"/></svg>