<svg xmlns="http://www.w3.org/2000/svg" width="36" height="25" viewBox="0 0 36 25"><defs><style>.a{fill:#192956;}</style></defs><path class="a" d="M35.831,15.038a2.274,2.274,0,0,0-.473-.75L28.606,7.473a2.245,2.245,0,0,0-3.2,0,2.3,2.3,0,0,0,0,3.226l2.926,2.93H6.752A2.261,2.261,0,0,1,4.5,11.358V2.272a2.251,2.251,0,1,0-4.5,0v9.086a6.784,6.784,0,0,0,6.752,6.815H28.336L25.41,21.1a2.286,2.286,0,0,0,0,3.226,2.236,2.236,0,0,0,3.2,0l6.752-6.815a2.363,2.363,0,0,0,.473-2.476Z" transform="translate(36 25) rotate(180)"/></svg>