<svg xmlns="http://www.w3.org/2000/svg" width="16" height="16" viewBox="0 0 16 16">
  <path id="usericon" d="M15.555,14.168a14.618,14.618,0,0,0-4.636-1.849,11.345,11.345,0,0,0,1.906-4.084A8.582,8.582,0,0,0,11.553,1.7,4.371,4.371,0,0,0,8,0,4.371,4.371,0,0,0,4.448,1.7a8.583,8.583,0,0,0-1.272,6.53,11.337,11.337,0,0,0,1.906,4.084A14.606,14.606,0,0,0,.446,14.167,1,1,0,0,0,1,16H15a1,1,0,0,0,.555-1.832ZM10.134,11.7l-.163.207a2.4,2.4,0,0,1-3.939,0L5.868,11.7A8.547,8.547,0,0,1,4.082,5.374C4.354,3.234,5.58,1,8,1s3.646,2.235,3.919,4.374A8.545,8.545,0,0,1,10.134,11.7ZM1,15a13.6,13.6,0,0,1,4.293-1.7l1.242-.269A2.646,2.646,0,0,0,8,13.5a2.645,2.645,0,0,0,1.465-.472l1.242.269A13.642,13.642,0,0,1,15,15Z" transform="translate(-0.001)" fill="#cacdd3"/>
</svg>
