<svg xmlns="http://www.w3.org/2000/svg" width="40" height="40" viewBox="0 0 40 40"><defs><style>.a{fill:#192956;}</style></defs><path class="a" d="M38.887,35.42A36.546,36.546,0,0,0,27.3,30.8,28.364,28.364,0,0,0,32.06,20.585c.943-3.91.576-11.56-3.179-16.328A10.929,10.929,0,0,0,20,0a10.928,10.928,0,0,0-8.88,4.258C7.365,9.024,7,16.674,7.941,20.584A28.342,28.342,0,0,0,12.7,30.8a36.514,36.514,0,0,0-11.59,4.624A2.5,2.5,0,0,0,2.5,40h35a2.5,2.5,0,0,0,1.388-4.58ZM25.334,29.248l-.408.518c-2.981,3.425-6.869,3.425-9.849,0l-.409-.518A21.368,21.368,0,0,1,10.2,13.435C10.885,8.086,13.95,2.5,20,2.5s9.116,5.588,9.8,10.936A21.364,21.364,0,0,1,25.334,29.248ZM2.5,37.5a34.006,34.006,0,0,1,10.733-4.26l3.105-.671A6.616,6.616,0,0,0,20,33.75a6.613,6.613,0,0,0,3.663-1.181l3.105.671A34.1,34.1,0,0,1,37.5,37.5Z" transform="translate(-0.001)"/></svg>